<svg width="390" height="260" viewBox="0 0 390 260" fill="none" xmlns="http://www.w3.org/2000/svg">
<path d="M262.89 115C265.22 126.94 259.67 139.87 249.67 147C234.25 158 216.01 153.32 201.67 143.28C177.67 126.44 154.28 119.82 126.12 133.09C114.31 138.66 103.88 146.64 92.95 153.74C71.82 167.48 23.05 181.88 16.19 144.74C12.61 125.37 33.34 116.11 49.39 118.93C57.7 120.39 65.76 123.28 74.17 123.93C87.3 124.93 100.26 120.53 112.17 114.93C124.08 109.33 135.41 102.53 147.86 98.29C171.74 90.15 197.29 85.41 222.32 87.29C237.8 88.5 259.46 98.11 262.89 115Z" fill="white"/>
<path d="M103.302 75.2936C109.522 76.4836 115.882 77.9936 122.122 76.9036C133.362 74.9036 141.302 65.2736 149.752 57.5836C167.752 41.1836 193.432 31.9836 217.122 37.7036C232.212 41.3436 245.312 50.5036 259.712 56.2936C277.58 63.448 297.123 65.3391 316.032 61.7436C324.902 60.0336 333.562 57.1336 342.552 56.2736C351.542 55.4136 361.292 56.9136 368.022 62.9436C375.802 69.9436 377.862 81.8336 374.802 91.8236C371.742 101.814 364.322 109.974 355.802 116.014C341.778 125.893 324.817 130.723 307.692 129.714C281.882 128.104 259.002 113.554 236.022 101.714C213.042 89.8736 186.112 80.1636 161.772 88.9136C152.282 92.3236 143.962 98.3136 135.662 104.044C127.362 109.774 118.732 115.424 108.982 118.044C99.232 120.664 87.982 119.674 80.252 113.224C73.332 107.484 69.832 94.8736 73.442 86.3736C78.612 74.1036 92.002 73.1236 103.302 75.2936Z" fill="white"/>
<path d="M307.74 64.8099C307.74 57.6099 304.69 55.4199 298.38 55.4199H80.7C74.39 55.4199 71.34 58.1299 71.34 65.3299V192.83H307.74V64.8099Z" fill="#332F30"/>
<path d="M71.33 192.77V201C71.33 211.4 74.39 212 80.69 212H298.38C304.69 212 307.74 210.4 307.74 200V192.73L71.33 192.77Z" fill="white"/>
<path d="M298.38 208.1H80.7C74.39 208.1 71.34 208.5 71.34 202.68V203.28C71.34 210.49 74.4 213.2 80.7 213.2H298.38C304.69 213.2 307.74 209.96 307.74 202.76V202.16C307.74 207.24 304.68 208.1 298.38 208.1Z" fill="#C0D5ED" fill-opacity="0.9"/>
<path d="M295.72 63.5601H83.42C82.8895 63.5601 82.3808 63.7708 82.0058 64.1458C81.6307 64.5209 81.42 65.0296 81.42 65.5601V179.7C81.42 180.23 81.6307 180.739 82.0058 181.114C82.3808 181.489 82.8895 181.7 83.42 181.7H295.72C296.25 181.7 296.759 181.489 297.134 181.114C297.509 180.739 297.72 180.23 297.72 179.7V65.5601C297.72 65.0296 297.509 64.5209 297.134 64.1458C296.759 63.7708 296.25 63.5601 295.72 63.5601Z" fill="#FFCF01"/>
<path d="M211.51 228.65L168.07 228.58L168.19 213.18H211.19L211.51 228.65Z" fill="white"/>
<path d="M211.19 218.74V213.19L168.19 213.04V219.04L211.19 218.74Z" fill="#B0C3D9"/>
<path d="M219.18 235.33C220.42 237.11 219.5 238.57 217.1 238.57H162C159.59 238.57 158.62 237.12 159.92 235.33L168.11 228.59H211.55L219.18 235.33Z" fill="#B0C3D9"/>
<path opacity="0.3" d="M215.51 181.99L163 63.5601L106.44 181.99H215.51Z" fill="#F9A20F"/>
<path opacity="0.3" d="M270.31 181.99L217.85 63.5601L161.25 181.99H270.31Z" fill="#F9A20F"/>
<path opacity="0.3" d="M297.35 151.889V120.109L272.5 63.5601L215.91 181.99H295.817C296.934 181.99 297.835 181.074 297.816 179.957L297.35 151.889Z" fill="#F9A20F"/>
<path opacity="0.3" d="M159.72 182L107.26 63.5601L81.5 117V180C81.5 181.105 82.3954 182 83.5 182H159.72Z" fill="#F9A20F"/>
<path d="M209.69 139.04C212.728 139.04 215.19 136.578 215.19 133.54C215.19 130.502 212.728 128.04 209.69 128.04C206.652 128.04 204.19 130.502 204.19 133.54C204.19 136.578 206.652 139.04 209.69 139.04Z" fill="#2D2D2D"/>
<path d="M168.69 139.04C171.728 139.04 174.19 136.578 174.19 133.54C174.19 130.502 171.728 128.04 168.69 128.04C165.652 128.04 163.19 130.502 163.19 133.54C163.19 136.578 165.652 139.04 168.69 139.04Z" fill="#2D2D2D"/>
<path d="M197.19 146C196.259 147.242 195.051 148.25 193.662 148.944C192.274 149.639 190.742 150 189.19 150C187.638 150 186.106 149.639 184.718 148.944C183.329 148.25 182.121 147.242 181.19 146" stroke="#2D2D2D" stroke-width="4" stroke-miterlimit="10" stroke-linecap="round"/>
<path d="M315 46.72C319.01 46.72 322.26 43.4695 322.26 39.4599C322.26 35.4504 319.01 32.2 315 32.2C310.99 32.2 307.74 35.4504 307.74 39.4599C307.74 43.4695 310.99 46.72 315 46.72Z" fill="white"/>
<path d="M331.307 160.231C332.468 157.658 331.323 154.632 328.75 153.472C326.178 152.311 323.152 153.456 321.991 156.029C320.831 158.601 321.975 161.627 324.548 162.788C327.121 163.948 330.147 162.804 331.307 160.231Z" fill="white"/>
<path opacity="0.8" d="M50.2002 191.591C52.2078 187.14 50.2275 181.905 45.7771 179.898C41.3268 177.89 36.0916 179.87 34.0841 184.321C32.0765 188.771 34.0568 194.006 38.5072 196.014C42.9575 198.021 48.1927 196.041 50.2002 191.591Z" fill="white"/>
<path d="M299.77 194.86H242.27C239.31 194.86 236.91 197.26 236.91 200.22V200.23C236.91 203.19 239.31 205.59 242.27 205.59H299.77C302.73 205.59 305.13 203.19 305.13 200.23V200.22C305.13 197.26 302.73 194.86 299.77 194.86Z" fill="#FCFCFF"/>
<path d="M209.18 224.11H180.88C180.112 224.11 179.49 224.73 179.49 225.495C179.49 226.26 180.112 226.88 180.88 226.88H209.18C209.948 226.88 210.57 226.26 210.57 225.495C210.57 224.73 209.948 224.11 209.18 224.11Z" fill="#FCFCFF"/>
<path d="M176.7 224.11H175.83C175.062 224.11 174.44 224.73 174.44 225.495C174.44 226.26 175.062 226.88 175.83 226.88H176.7C177.468 226.88 178.09 226.26 178.09 225.495C178.09 224.73 177.468 224.11 176.7 224.11Z" fill="#FCFCFF"/>
<path d="M229.64 194.86H229.63C226.67 194.86 224.27 197.26 224.27 200.22V200.23C224.27 203.19 226.67 205.59 229.63 205.59H229.64C232.6 205.59 235 203.19 235 200.23V200.22C235 197.26 232.6 194.86 229.64 194.86Z" fill="#FCFCFF"/>
<path opacity="0.39" d="M297.94 63.5601H81.64V122.7H297.94V63.5601Z" fill="url(#paint0_linear)"/>
<defs>
<linearGradient id="paint0_linear" x1="189.79" y1="122.7" x2="189.79" y2="63.5601" gradientUnits="userSpaceOnUse">
<stop stop-color="white" stop-opacity="0"/>
<stop offset="1" stop-color="#FFF5CC"/>
</linearGradient>
</defs>
</svg>
