<?xml version="1.0" encoding="UTF-8"?>
<!DOCTYPE svg PUBLIC "-//W3C//DTD SVG 1.1//EN" "http://www.w3.org/Graphics/SVG/1.1/DTD/svg11.dtd">
<svg version="1.1" xmlns="http://www.w3.org/2000/svg" xmlns:xlink="http://www.w3.org/1999/xlink" x="0" y="0" width="390" height="260" viewBox="0, 0, 390, 260">
  <defs>
    <linearGradient id="Gradient_1" gradientUnits="userSpaceOnUse" x1="146.711" y1="122.773" x2="146.711" y2="77.962">
      <stop offset="1" stop-color="#FFF5CC"/>
      <stop offset="1" stop-color="#000000"/>
    </linearGradient>
    <linearGradient id="Gradient_2" gradientUnits="userSpaceOnUse" x1="196.166" y1="105.872" x2="196.166" y2="41.82">
      <stop offset="1" stop-color="#FFF5CC"/>
      <stop offset="1" stop-color="#000000"/>
    </linearGradient>
    <linearGradient id="Gradient_3" gradientUnits="userSpaceOnUse" x1="306.682" y1="184.311" x2="305.975" y2="110.885">
      <stop offset="0.61" stop-color="#FCCA6A" stop-opacity="0"/>
      <stop offset="1" stop-color="#FFF5CC"/>
    </linearGradient>
    <linearGradient id="Gradient_4" gradientUnits="userSpaceOnUse" x1="45.108" y1="139.371" x2="45.108" y2="87.717">
      <stop offset="1" stop-color="#FFF2C4"/>
      <stop offset="1" stop-color="#000000"/>
    </linearGradient>
  </defs>
  <g id="Layer_1">
    <path d="M197.092,116.939 C198.698,125.986 194.873,135.783 187.981,141.186 C177.353,149.521 164.782,145.975 154.899,138.367 C138.357,125.607 122.237,120.591 102.828,130.646 C94.689,134.867 87.5,140.913 79.967,146.293 C65.404,156.704 31.791,167.615 27.063,139.473 C24.596,124.796 38.883,117.78 49.945,119.917 C55.673,121.023 61.228,123.213 67.024,123.705 C76.073,124.463 85.005,121.129 93.214,116.886 C101.422,112.643 109.231,107.49 117.812,104.277 C134.27,98.11 151.88,94.518 169.131,95.943 C179.8,96.859 194.728,104.141 197.092,116.939 z" fill="#FFFFFF" display="none"/>
    <path d="M87.102,86.853 C91.389,87.754 95.772,88.899 100.073,88.073 C107.82,86.557 113.292,79.26 119.116,73.434 C131.522,61.007 149.221,54.036 165.548,58.37 C175.949,61.128 184.977,68.069 194.902,72.456 C207.217,77.877 220.686,79.31 233.718,76.586 C239.832,75.29 245.8,73.093 251.996,72.441 C258.192,71.789 264.912,72.926 269.551,77.495 C274.913,82.799 276.332,91.808 274.223,99.378 C272.114,106.948 267,113.131 261.128,117.707 C251.463,125.193 239.773,128.853 227.97,128.088 C210.182,126.868 194.413,115.843 178.574,106.872 C162.736,97.9 144.176,90.543 127.4,97.173 C120.86,99.757 115.125,104.295 109.405,108.637 C103.684,112.979 97.737,117.26 91.017,119.245 C84.297,121.231 76.543,120.481 71.216,115.593 C66.446,111.244 64.034,101.689 66.522,95.248 C70.085,85.951 79.314,85.208 87.102,86.853 z" fill="#FFFFFF" display="none"/>
    <path d="M228.003,78.909 C228.003,73.454 225.901,71.794 221.552,71.794 L71.524,71.794 C67.175,71.794 65.073,73.848 65.073,79.303 L65.073,175.912 L228.003,175.912 L228.003,78.909 z" fill="#332F30" display="none"/>
    <path d="M65.066,175.867 L65.066,182.103 C65.066,189.983 67.175,190.437 71.518,190.437 L221.552,190.437 C225.901,190.437 228.003,189.225 228.003,181.345 L228.003,175.836 L65.066,175.867 z" fill="#FFFFFF" display="none"/>
    <path d="M221.552,187.482 L71.524,187.482 C67.175,187.482 65.073,187.785 65.073,183.376 L65.073,183.83 C65.073,189.293 67.182,191.347 71.524,191.347 L221.552,191.347 C225.901,191.347 228.003,188.892 228.003,183.436 L228.003,182.982 C228.003,186.831 225.894,187.482 221.552,187.482 z" fill="#C0D5ED" fill-opacity="0.9" display="none"/>
    <path d="M219.719,77.962 L73.399,77.962 C73.033,77.962 72.683,78.122 72.424,78.406 C72.166,78.69 72.021,79.076 72.021,79.478 L72.021,165.963 C72.021,166.365 72.166,166.75 72.424,167.035 C72.683,167.319 73.033,167.479 73.399,167.479 L219.719,167.479 C220.084,167.479 220.435,167.319 220.694,167.035 C220.952,166.75 221.097,166.365 221.097,165.963 L221.097,79.478 C221.097,79.076 220.952,78.69 220.694,78.406 C220.435,78.122 220.084,77.962 219.719,77.962 z" fill="#FFCF01" display="none"/>
    <path d="M161.68,203.053 L131.741,203 L131.824,191.332 L161.46,191.332 L161.68,203.053 z" fill="#FFFFFF" display="none"/>
    <path d="M161.46,195.544 L161.46,191.339 L131.824,191.226 L131.824,195.772 L161.46,195.544 z" fill="#B0C3D9" display="none"/>
    <path d="M166.967,208.115 C167.821,209.464 167.187,210.57 165.533,210.57 L127.557,210.57 C125.896,210.57 125.228,209.471 126.124,208.115 L131.769,203.008 L161.708,203.008 L166.967,208.115 z" fill="#B0C3D9" display="none"/>
    <path d="M164.437,167.698 L128.247,77.962 L89.265,167.698 L164.437,167.698 z" fill="#F9A20F" opacity="0.3" display="none"/>
    <path d="M202.206,167.698 L166.05,77.962 L127.041,167.698 L202.206,167.698 z" fill="#F9A20F" opacity="0.3" display="none"/>
    <path d="M220.842,144.89 L220.842,120.81 L203.716,77.962 L164.713,167.698 L219.786,167.698 C220.556,167.698 221.177,167.004 221.164,166.158 L220.842,144.89 z" fill="#F9A20F" opacity="0.3" display="none"/>
    <path d="M125.986,167.706 L89.83,77.962 L72.076,118.454 L72.076,166.191 C72.076,167.028 72.693,167.706 73.454,167.706 L125.986,167.706 z" fill="#F9A20F" opacity="0.3" display="none"/>
    <path d="M160.426,135.154 C162.52,135.154 164.217,133.289 164.217,130.987 C164.217,128.685 162.52,126.82 160.426,126.82 C158.332,126.82 156.635,128.685 156.635,130.987 C156.635,133.289 158.332,135.154 160.426,135.154 z" fill="#2D2D2D" display="none"/>
    <path d="M132.168,135.154 C134.262,135.154 135.959,133.289 135.959,130.987 C135.959,128.685 134.262,126.82 132.168,126.82 C130.074,126.82 128.378,128.685 128.378,130.987 C128.378,133.289 130.074,135.154 132.168,135.154 z" fill="#2D2D2D" display="none"/>
    <g display="none">
      <path d="M151.811,140.428 C151.169,141.369 150.337,142.133 149.379,142.659 C148.423,143.186 147.367,143.459 146.297,143.459 C145.228,143.459 144.172,143.186 143.215,142.659 C142.258,142.133 141.425,141.369 140.783,140.428" fill="#000000"/>
      <path d="M151.811,140.428 C151.169,141.369 150.337,142.133 149.379,142.659 C148.423,143.186 147.367,143.459 146.297,143.459 C145.228,143.459 144.172,143.186 143.215,142.659 C142.258,142.133 141.425,141.369 140.783,140.428" fill-opacity="0" stroke="#2D2D2D" stroke-width="4" stroke-linecap="round" stroke-miterlimit="10"/>
    </g>
    <path d="M233.007,65.202 C235.771,65.202 238.011,62.739 238.011,59.701 C238.011,56.663 235.771,54.2 233.007,54.2 C230.243,54.2 228.003,56.663 228.003,59.701 C228.003,62.739 230.243,65.202 233.007,65.202 z" fill="#FFFFFF" display="none"/>
    <path d="M244.246,151.211 C245.046,149.262 244.257,146.969 242.484,146.09 C240.711,145.21 238.626,146.078 237.825,148.027 C237.026,149.976 237.814,152.269 239.588,153.149 C241.361,154.028 243.447,153.161 244.246,151.211 z" fill="#FFFFFF" display="none"/>
    <path d="M50.504,174.973 C51.887,171.601 50.522,167.634 47.455,166.113 C44.388,164.592 40.78,166.092 39.396,169.465 C38.012,172.836 39.377,176.803 42.445,178.325 C45.512,179.845 49.12,178.345 50.504,174.973 z" fill="#FFFFFF" opacity="0.8" display="none"/>
    <path d="M233.478,187.642 L193.848,187.642 C191.808,187.642 190.154,189.46 190.154,191.703 L190.154,191.71 C190.154,193.953 191.808,195.772 193.848,195.772 L233.478,195.772 C235.518,195.772 237.172,193.953 237.172,191.71 L237.172,191.703 C237.172,189.46 235.518,187.642 233.478,187.642 z" fill="#FCFCFF"/>
    <path d="M160.075,199.613 L140.57,199.613 C140.04,199.613 139.612,200.083 139.612,200.663 C139.612,201.243 140.04,201.712 140.57,201.712 L160.075,201.712 C160.604,201.712 161.033,201.243 161.033,200.663 C161.033,200.083 160.604,199.613 160.075,199.613 z" fill="#FCFCFF" display="none"/>
    <path d="M137.689,199.613 L137.089,199.613 C136.56,199.613 136.131,200.083 136.131,200.663 C136.131,201.243 136.56,201.712 137.089,201.712 L137.689,201.712 C138.218,201.712 138.647,201.243 138.647,200.663 C138.647,200.083 138.218,199.613 137.689,199.613 z" fill="#FCFCFF" display="none"/>
    <path d="M174.176,177.45 L174.169,177.45 C172.129,177.45 170.475,179.269 170.475,181.512 L170.475,181.519 C170.475,183.762 172.129,185.581 174.169,185.581 L174.176,185.581 C176.216,185.581 177.87,183.762 177.87,181.519 L177.87,181.512 C177.87,179.269 176.216,177.45 174.176,177.45 z" fill="#FCFCFF" display="none"/>
    <path d="M221.249,77.962 L72.172,77.962 L72.172,122.773 L221.249,122.773 L221.249,77.962 z" fill="url(#Gradient_1)" opacity="0.39" display="none"/>
    <g>
      <path d="M118.714,49.406 C113.077,47.654 106.694,47.654 101.804,51.311 C96.914,54.968 94.538,62.967 97.729,68.453 C101.465,74.776 109.75,74.624 115.59,78.433 C119.189,80.795 121.838,84.757 125.641,86.814 C131.549,90.09 138.748,87.957 144.452,84.3 C150.632,80.338 160.818,65.862 149.41,61.748 C144.656,59.996 139.902,59.539 135.216,57.253 C129.647,54.587 124.486,51.158 118.714,49.406 z" fill="#FFFFFF" opacity="0.77" display="none"/>
      <path d="M93.729,103.575 C104.935,96.642 118.313,96.032 131.08,96.032 C143.848,96.032 157.09,96.185 168.906,90.547 C188.669,80.947 199.399,57.406 214.339,39.959 C220.179,33.178 228.601,21.522 242.726,21.598 C255.765,21.674 259.296,27.083 265.272,35.464 C270.298,42.473 277.021,71.119 282.385,76.833 C290.807,85.823 300.721,93.137 307.513,103.803 C312.606,111.879 315.662,122.316 312.945,131.764 C310.433,140.526 303.37,146.925 295.697,150.201 C281.367,156.297 265.34,153.096 250.604,148.296 C235.867,143.573 221.198,137.249 205.918,137.326 C190.298,137.402 175.494,144.182 160.961,150.659 C146.428,157.134 131.42,163.534 115.8,162.924 C101.335,162.391 82.931,160.715 77.091,140.602 C72.677,124.679 82.931,110.356 93.729,103.575 z" fill="#FFFFFF" opacity="0.77" display="none"/>
      <path d="M284.349,148.144 C284.349,150.81 283.465,153.401 281.768,155.229 C280.138,157.134 277.829,158.2 275.452,158.277 L116.677,158.277 C111.787,158.277 107.848,153.705 107.848,149.439 L107.848,48.72 C107.848,41.864 112.942,37.826 117.831,37.826 L275.52,37.902 C280.41,37.902 284.349,43.159 284.349,48.797 L284.349,148.144 z" fill="#332F4B"/>
      <path d="M119.257,154.01 C117.356,154.01 115.522,153.096 114.164,151.573 C112.806,150.049 112.059,147.991 112.059,145.859 L112.059,49.939 C112.059,47.806 112.806,45.749 114.164,44.225 C115.522,42.702 117.356,41.864 119.257,41.787 L272.939,41.787 C274.841,41.787 276.675,42.702 278.033,44.225 C279.391,45.749 280.138,47.806 280.138,49.939 L280.138,145.859 C280.138,147.991 279.391,150.049 278.033,151.573 C276.675,153.096 274.841,153.934 272.939,154.01 L119.257,154.01 z" fill="#FFCF01"/>
      <path d="M218.067,153.934 L173.45,41.406 L125.301,153.934 L218.067,153.934 z" fill="#F9A20F" opacity="0.3"/>
      <path d="M264.655,155.458 L219.969,41.483 L171.753,155.458 L264.655,155.458 z" fill="#F9A20F" opacity="0.3"/>
      <path d="M273.415,153.782 C277.15,153.782 280.206,150.354 280.206,146.164 L280.206,72.948 L268.39,42.168 L265.673,42.168 L219.154,153.782 L273.415,153.782 z" fill="#F9A20F" opacity="0.3"/>
      <path d="M170.462,153.934 L125.777,41.483 L111.855,76.909 L111.855,144.792 C111.855,149.82 115.522,153.934 120.004,153.934 L170.462,153.934 z" fill="#F9A20F" opacity="0.3"/>
      <path d="M271.785,31.807 C274.298,31.807 276.335,29.521 276.335,26.702 C276.335,23.884 274.298,21.598 271.785,21.598 C269.272,21.598 267.235,23.884 267.235,26.702 C267.235,29.521 269.272,31.807 271.785,31.807 z" fill="#FFFFFF" display="none"/>
      <path d="M296.504,76.681 C297.252,74.853 296.504,72.719 294.875,71.957 C293.245,71.119 291.343,71.957 290.664,73.786 C289.917,75.614 290.664,77.748 292.294,78.509 C293.924,79.271 295.825,78.433 296.504,76.681 z" fill="#F0F0FA" opacity="0.77" display="none"/>
      <path d="M101.261,90.699 C102.551,87.576 101.261,83.919 98.476,82.471 C95.692,81.024 92.432,82.471 91.142,85.595 C89.852,88.718 91.142,92.375 93.926,93.823 C96.711,95.194 100.038,93.823 101.261,90.699 z" fill="#FFFFFF" opacity="0.77" display="none"/>
      <path d="M101.261,90.699 C102.551,87.576 101.261,83.919 98.476,82.471 C95.692,81.024 92.432,82.471 91.142,85.595 C89.852,88.718 91.142,92.375 93.926,93.823 C96.711,95.194 100.038,93.823 101.261,90.699 z" fill="#FFFFFF" opacity="0.77" display="none"/>
      <path d="M301.982,65.501 C303.272,62.377 301.982,58.72 299.198,57.273 C296.413,55.825 293.154,57.273 291.864,60.397 C290.573,63.52 291.864,67.177 294.648,68.625 C297.432,69.996 300.76,68.625 301.982,65.501 z" fill="#FFFFFF" opacity="0.77" display="none"/>
      <path d="M119.936,41.787 L272.396,41.787 C274.501,41.787 276.471,42.702 277.965,44.378 C279.459,46.054 280.273,48.263 280.273,50.625 L280.273,105.86 L112.059,105.86 L112.059,50.625 C112.059,48.263 112.874,46.054 114.368,44.378 C115.862,42.702 117.831,41.787 119.936,41.787 z" fill="url(#Gradient_2)" opacity="0.39"/>
      <path d="M128.086,153.325 L128.086,163.991 L129.444,163.991 L129.444,163.306 L263.5,163.306 L263.5,163.991 L264.858,163.991 L264.858,153.325 L128.086,153.325 z" fill="#332F4B"/>
      <path d="M264.79,153.401 L128.086,153.401 L128.086,157.21 L264.858,157.21 L264.858,153.401 L264.79,153.401 z" fill="#305A8A"/>
      <path d="M289.17,161.019 L103.026,161.019 C102.347,161.019 101.804,161.629 101.804,162.391 L101.804,166.201 C101.804,166.962 102.347,167.572 103.026,167.572 L289.17,167.572 C289.849,167.572 290.393,166.962 290.393,166.201 L290.393,162.391 C290.393,161.629 289.849,161.019 289.17,161.019 z" fill="#C0D5ED"/>
      <g display="none">
        <path d="M201.664,107.657 C200.984,108.646 200.167,109.406 199.216,109.938 C198.264,110.469 197.177,110.771 196.09,110.769 C195.004,110.767 193.918,110.46 192.968,109.924 C192.018,109.389 191.137,108.625 190.527,107.634" fill="#000000"/>
        <path d="M201.664,107.657 C200.984,108.646 200.167,109.406 199.216,109.938 C198.264,110.469 197.177,110.771 196.09,110.769 C195.004,110.767 193.918,110.46 192.968,109.924 C192.018,109.389 191.137,108.625 190.527,107.634" fill-opacity="0" stroke="#2D2D2D" stroke-width="4.5" stroke-linecap="round" stroke-miterlimit="10"/>
      </g>
      <path d="M185.413,97.454 C185.413,100.165 183.455,102.362 181.039,102.362 C178.623,102.362 176.664,100.165 176.664,97.454 C176.664,94.744 178.623,92.547 181.039,92.547 C183.455,92.547 185.413,94.744 185.413,97.454 z" fill="#2D2D2D" display="none"/>
      <path d="M215.698,97.454 C215.698,100.165 213.74,102.362 211.324,102.362 C208.908,102.362 206.949,100.165 206.949,97.454 C206.949,94.744 208.908,92.547 211.324,92.547 C213.74,92.547 215.698,94.744 215.698,97.454 z" fill="#2D2D2D" display="none"/>
    </g>
    <g display="none">
      <path d="M331.066,165.19 C331.447,165.19 331.82,165.074 332.137,164.857 C332.453,164.64 332.7,164.331 332.846,163.97 C332.991,163.609 333.03,163.211 332.955,162.828 C332.881,162.445 332.698,162.092 332.428,161.816 C332.159,161.54 331.816,161.352 331.442,161.275 C331.069,161.199 330.681,161.238 330.33,161.388 C329.978,161.537 329.677,161.791 329.465,162.116 C329.254,162.441 329.141,162.823 329.141,163.214 C329.141,163.738 329.344,164.24 329.705,164.611 C330.066,164.982 330.556,165.19 331.066,165.19 z" fill="#FFFFFF"/>
      <path d="M281.905,129.646 C282.16,129.646 282.409,129.569 282.622,129.423 C282.834,129.278 282.999,129.071 283.097,128.829 C283.195,128.587 283.22,128.321 283.17,128.064 C283.12,127.807 282.998,127.571 282.817,127.386 C282.637,127.2 282.407,127.074 282.156,127.023 C281.906,126.972 281.647,126.998 281.411,127.099 C281.175,127.199 280.973,127.369 280.832,127.586 C280.69,127.804 280.614,128.06 280.614,128.322 C280.614,128.673 280.75,129.01 280.992,129.259 C281.234,129.507 281.562,129.646 281.905,129.646 z" fill="#FFFFFF" opacity="0.49"/>
      <path d="M324.209,114.658 L324.478,180.491 C324.482,181.563 324.072,182.592 323.337,183.355 C322.602,184.117 321.602,184.55 320.557,184.559 L292.633,184.782 C292.112,184.786 291.596,184.685 291.114,184.484 C290.632,184.284 290.194,183.987 289.824,183.613 C289.454,183.238 289.159,182.792 288.958,182.3 C288.756,181.809 288.651,181.281 288.649,180.749 L288.496,115.433 C288.496,113.468 289.628,111.359 292.101,111.359 L295.816,111.335 C295.967,111.334 296.112,111.394 296.221,111.501 C296.329,111.609 296.392,111.756 296.396,111.91 L296.396,112.397 C296.409,112.908 296.617,113.393 296.975,113.749 C297.334,114.105 297.814,114.303 298.313,114.3 L314.482,114.3 C315.516,114.3 316.441,113.535 316.465,112.464 L316.465,111.886 C316.46,111.82 316.469,111.753 316.492,111.691 C316.515,111.629 316.55,111.573 316.596,111.527 C316.642,111.48 316.698,111.445 316.759,111.423 C316.82,111.401 316.885,111.393 316.949,111.399 L320.7,111.375 C322.63,111.359 324.188,112.694 324.209,114.658 z" fill="url(#Gradient_3)" opacity="0.39"/>
      <path d="M320.088,185.283 L292.858,185.283 C291.558,185.28 290.313,184.749 289.394,183.806 C288.475,182.863 287.958,181.584 287.955,180.251 L287.955,117.246 C287.955,115.911 288.472,114.631 289.391,113.686 C290.31,112.741 291.557,112.208 292.858,112.205 L320.088,112.205 C321.389,112.207 322.637,112.738 323.557,113.682 C324.477,114.627 324.995,115.907 324.997,117.243 L324.997,180.248 C324.994,181.583 324.476,182.863 323.556,183.807 C322.636,184.751 321.388,185.281 320.088,185.283 z" fill="#3D4652"/>
      <path d="M320.836,185.578 L292.138,185.578 C290.77,185.585 289.455,185.051 288.482,184.091 C287.509,183.132 286.957,181.826 286.949,180.461 L286.949,116.452 C286.957,115.086 287.509,113.781 288.482,112.821 C289.455,111.862 290.77,111.327 292.138,111.335 L320.848,111.335 C322.215,111.33 323.527,111.866 324.498,112.826 C325.468,113.786 326.018,115.091 326.026,116.455 L326.026,180.461 C326.018,181.824 325.468,183.129 324.498,184.089 C323.527,185.049 322.215,185.585 320.848,185.58 L320.836,185.578 z" fill="#332F4B"/>
      <path d="M320.21,113.331 L292.378,113.331 C290.448,113.331 288.883,114.914 288.883,116.866 L288.883,180.049 C288.883,182.002 290.448,183.585 292.378,183.585 L320.21,183.585 C322.14,183.585 323.704,182.002 323.704,180.049 L323.704,116.866 C323.704,114.914 322.14,113.331 320.21,113.331 z" fill="#2D353D"/>
      <path d="M320.563,113.331 L316.84,113.331 C316.737,113.331 316.636,113.364 316.552,113.424 C316.468,113.485 316.405,113.571 316.373,113.669 L316.373,114.166 C316.368,114.684 316.16,115.18 315.793,115.545 C315.426,115.911 314.929,116.117 314.411,116.119 L298.572,116.119 C298.055,116.115 297.561,115.908 297.196,115.542 C296.831,115.177 296.624,114.683 296.619,114.166 L296.619,113.822 C296.619,113.692 296.568,113.567 296.475,113.475 C296.383,113.382 296.259,113.331 296.128,113.331 L292.412,113.331 C291.477,113.334 290.582,113.708 289.921,114.369 C289.26,115.03 288.887,115.926 288.883,116.861 L288.883,180.054 C288.887,180.99 289.26,181.885 289.921,182.546 C290.582,183.207 291.477,183.581 292.412,183.585 L320.563,183.585 C321.497,183.581 322.393,183.207 323.054,182.546 C323.714,181.885 324.087,180.99 324.091,180.054 L324.091,116.867 C324.088,115.931 323.716,115.034 323.055,114.372 C322.394,113.709 321.498,113.335 320.563,113.331 z" fill="#FFCF01"/>
      <path d="M309.959,115.594 C310.343,115.594 310.655,115.275 310.655,114.881 C310.655,114.486 310.343,114.167 309.959,114.167 C309.575,114.167 309.263,114.486 309.263,114.881 C309.263,115.275 309.575,115.594 309.959,115.594 z" fill="#305A8A"/>
      <path d="M307.499,115.243 L302.65,115.243 C302.555,115.243 302.463,115.204 302.396,115.135 C302.329,115.066 302.291,114.972 302.291,114.875 L302.291,114.816 C302.291,114.718 302.329,114.624 302.396,114.555 C302.463,114.486 302.555,114.447 302.65,114.447 L307.499,114.447 C307.594,114.447 307.685,114.486 307.753,114.555 C307.82,114.624 307.858,114.718 307.858,114.816 L307.858,114.875 C307.858,114.972 307.82,115.066 307.753,115.135 C307.685,115.204 307.594,115.243 307.499,115.243 z" fill="#305A8A"/>
      <path d="M311.81,137.914 C312.071,137.914 312.326,137.835 312.543,137.686 C312.76,137.537 312.929,137.326 313.029,137.079 C313.128,136.831 313.155,136.559 313.104,136.296 C313.053,136.034 312.927,135.793 312.743,135.603 C312.558,135.414 312.323,135.285 312.067,135.233 C311.811,135.18 311.546,135.207 311.305,135.31 C311.064,135.412 310.858,135.586 310.713,135.808 C310.568,136.031 310.491,136.293 310.491,136.561 C310.491,136.92 310.629,137.264 310.877,137.518 C311.124,137.772 311.46,137.914 311.81,137.914 z" fill="#2D2D2D"/>
      <path d="M301.946,137.914 C302.207,137.914 302.462,137.835 302.679,137.686 C302.896,137.537 303.065,137.326 303.165,137.079 C303.265,136.831 303.291,136.559 303.24,136.296 C303.189,136.034 303.063,135.793 302.879,135.603 C302.694,135.414 302.459,135.285 302.203,135.233 C301.947,135.18 301.682,135.207 301.441,135.31 C301.2,135.412 300.994,135.586 300.849,135.808 C300.704,136.031 300.627,136.293 300.627,136.561 C300.627,136.92 300.766,137.264 301.013,137.518 C301.26,137.772 301.596,137.914 301.946,137.914 z" fill="#2D2D2D"/>
      <g>
        <path d="M308.792,139.64 C308.568,139.946 308.278,140.195 307.944,140.367 C307.61,140.538 307.242,140.627 306.869,140.627 C306.496,140.627 306.128,140.538 305.794,140.367 C305.46,140.195 305.17,139.946 304.946,139.64" fill="#000000"/>
        <path d="M308.792,139.64 C308.568,139.946 308.278,140.195 307.944,140.367 C307.61,140.538 307.242,140.627 306.869,140.627 C306.496,140.627 306.128,140.538 305.794,140.367 C305.46,140.195 305.17,139.946 304.946,139.64" fill-opacity="0" stroke="#2D2D2D" stroke-width="2" stroke-linecap="round" stroke-miterlimit="10"/>
      </g>
    </g>
    <g display="none">
      <path d="M76.947,87.349 L13.817,87.349 L13.817,168.901 L76.947,168.901 L76.947,87.349 z" fill="#FDCB2E"/>
      <path d="M16.247,87.695 L73.977,87.695 C74.787,87.695 75.543,88.447 76.083,89.776 C76.623,91.105 76.947,92.897 76.947,94.804 L76.947,139.366 L13.277,139.366 L13.277,94.804 C13.277,92.897 13.601,91.105 14.141,89.776 C14.681,88.447 15.437,87.695 16.247,87.695 z" fill="url(#Gradient_4)" opacity="0.39" display="none"/>
      <path d="M45.517,174.796 C47.187,174.796 48.541,173.347 48.541,171.559 C48.541,169.771 47.187,168.323 45.517,168.323 C43.846,168.323 42.492,169.771 42.492,171.559 C42.492,173.347 43.846,174.796 45.517,174.796 z" fill="#305A8A"/>
      <path d="M45.355,87.349 C45.922,87.349 46.381,86.857 46.381,86.25 C46.381,85.644 45.922,85.152 45.355,85.152 C44.788,85.152 44.329,85.644 44.329,86.25 C44.329,86.857 44.788,87.349 45.355,87.349 z" fill="#305A8A"/>
      <path d="M75.273,175.836 C77.649,175.836 79.593,173.755 79.593,171.213 L79.593,85.904 C79.593,83.361 77.649,81.28 75.273,81.28 L14.627,81.28 C12.251,81.28 10.307,83.361 10.307,85.904 L10.307,171.213 C10.307,173.755 12.251,175.836 14.627,175.836 L75.273,175.836 z M44.545,86.251 C44.545,85.846 44.869,85.499 45.247,85.499 C45.625,85.499 45.949,85.846 45.949,86.251 C45.949,86.655 45.625,87.002 45.247,87.002 C44.869,87.002 44.545,86.655 44.545,86.251 z M15.599,167.513 L15.599,88.851 L74.301,88.851 L75.327,167.513 L15.599,167.513 z M42.709,171.559 C42.709,170.057 43.843,168.843 45.247,168.843 C46.651,168.843 47.785,170.057 47.785,171.559 C47.785,173.062 46.651,174.276 45.247,174.276 C43.843,174.276 42.709,173.062 42.709,171.559 z" fill="#332F4B"/>
      <path d="M52.753,136.477 C53.941,136.477 54.913,135.436 54.913,134.164 C54.913,132.893 53.941,131.853 52.753,131.853 C51.565,131.853 50.593,132.893 50.593,134.164 C50.593,135.436 51.565,136.477 52.753,136.477 z" fill="#282828" display="none"/>
      <path d="M36.606,136.477 C37.794,136.477 38.767,135.436 38.767,134.164 C38.767,132.893 37.794,131.853 36.606,131.853 C35.418,131.853 34.446,132.893 34.446,134.164 C34.446,135.436 35.418,136.477 36.606,136.477 z" fill="#282828" display="none"/>
      <path d="M40.804,138.511 C41.275,138.12 41.953,138.21 42.319,138.714 C42.584,139.079 42.932,139.375 43.337,139.594 C43.835,139.835 44.215,139.944 44.653,139.944 C45.115,139.944 45.544,139.822 45.952,139.604 C46.364,139.383 46.718,139.083 46.987,138.714 C47.353,138.21 48.031,138.12 48.502,138.511 C48.973,138.903 49.058,139.63 48.692,140.134 C48.204,140.805 47.586,141.314 46.918,141.672 C46.246,142.031 45.488,142.256 44.653,142.256 C43.801,142.256 43.104,142.021 42.424,141.69 L42.406,141.681 L42.388,141.672 C41.72,141.314 41.102,140.805 40.614,140.134 C40.248,139.63 40.333,138.903 40.804,138.511 z" fill="#282828" display="none"/>
      <path d="M14.033,74.98 C14.681,74.98 15.275,74.807 15.815,74.402 C16.355,74.055 16.733,73.535 17.003,72.899 C17.219,72.264 17.327,71.628 17.165,70.934 C17.057,70.299 16.733,69.663 16.301,69.2 C15.869,68.738 15.275,68.391 14.681,68.276 C14.087,68.16 13.439,68.218 12.845,68.449 C12.25,68.68 11.764,69.143 11.44,69.663 C11.116,70.241 10.9,70.877 10.9,71.512 C10.9,72.379 11.224,73.246 11.818,73.882 C12.359,74.633 13.169,74.98 14.033,74.98 z" fill="#FFFFFF"/>
    </g>
  </g>
</svg>
