<?xml version="1.0" encoding="UTF-8"?>
<!DOCTYPE svg PUBLIC "-//W3C//DTD SVG 1.1//EN" "http://www.w3.org/Graphics/SVG/1.1/DTD/svg11.dtd">
<svg version="1.1" xmlns="http://www.w3.org/2000/svg" xmlns:xlink="http://www.w3.org/1999/xlink" x="0" y="0" width="48" height="48" viewBox="0, 0, 48, 48">
  <g id="Layer_1">
    <path d="M24,3 L28.7,6.6 L34.5,5.8 L36.7,11.3 L42.2,13.5 L41.4,19.3 L45,24 L41.4,28.7 L42.2,34.5 L36.7,36.7 L34.5,42.2 L28.7,41.4 L24,45 L19.3,41.4 L13.5,42.2 L11.3,36.7 L5.8,34.5 L6.6,28.7 L3,24 L6.6,19.3 L5.8,13.5 L11.3,11.3 L13.5,5.8 L19.3,6.6 z" fill="#8BC34A"/>
    <path d="M34.6,14.6 L21,28.2 L15.4,22.6 L12.6,25.4 L21,33.8 L37.4,17.4 z" fill="#CCFF90" display="none"/>
  </g>
</svg>
