<?xml version="1.0" encoding="UTF-8"?>
<!DOCTYPE svg PUBLIC "-//W3C//DTD SVG 1.1//EN" "http://www.w3.org/Graphics/SVG/1.1/DTD/svg11.dtd">
<svg version="1.1" xmlns="http://www.w3.org/2000/svg" xmlns:xlink="http://www.w3.org/1999/xlink" x="0" y="0" width="1055.52" height="773.82" viewBox="0, 0, 1055.52, 773.82">
  <g id="Layer_1">
    <path d="M548.38,96.13 L544.57,317.13 C544.57,317.13 682.49,317.13 799.83,355.23 L802.12,131.91 C802.12,131.91 613.91,86.99 548.38,96.13 z" fill="#000000" opacity="0.1"/>
    <path d="M546.38,93.13 L542.57,314.13 C542.57,314.13 680.49,314.13 797.83,352.23 L800.12,128.91 C800.12,128.91 611.91,83.99 546.38,93.13 z" fill="#F5F5FB"/>
    <path d="M489.64,95.96 L493.45,316.96 C493.45,316.96 355.53,316.96 238.19,355.06 L235.9,131.8 C235.9,131.8 424.11,86.82 489.64,95.96 z" fill="#000000" opacity="0.1"/>
    <path d="M491.64,92.96 L495.45,313.96 C495.45,313.96 357.53,313.96 240.19,352.06 L237.9,128.8 C237.9,128.8 426.11,83.82 491.64,92.96 z" fill="#F5F5FB"/>
    <path d="M835.41,163.42 L835.41,382.11 C835.41,382.11 880.41,376.78 974.85,493.36 L983.24,274.67 C983.24,274.67 884.94,168.76 835.41,163.42 z" fill="#000000" opacity="0.1"/>
    <path d="M833.41,161.42 L833.41,380.11 C833.41,380.11 878.41,374.78 972.85,491.36 L981.24,272.67 C981.24,272.67 882.94,166.76 833.41,161.42 z" fill="#F5F5FB"/>
    <path d="M205.06,169.91 L205.06,388.61 C205.06,388.61 160.06,383.28 65.62,499.86 L57.24,281.17 C57.24,281.17 155.53,175.26 205.06,169.91 z" fill="#000000" opacity="0.1"/>
    <path d="M207.06,166.91 L207.06,385.61 C207.06,385.61 162.06,380.28 67.62,496.86 L59.24,278.17 C59.24,278.17 157.53,172.26 207.06,166.91 z" fill="#F5F5FB"/>
    <path d="M713.06,535.68 C713.06,543.13 665.75,586.18 558.06,586.18 C450.37,586.18 392.06,544.63 392.06,537.18 C392.06,529.73 452.37,548.18 560.06,548.18 C667.75,548.18 713.06,528.22 713.06,535.68 z" fill="#F7F7FD"/>
    <g opacity="0.1">
      <path d="M705.92,305.5 C705.92,342.995 637.814,373.39 553.8,373.39 C469.786,373.39 401.68,342.995 401.68,305.5 C401.68,268.005 469.786,237.61 553.8,237.61 C637.814,237.61 705.92,268.005 705.92,305.5 z" fill="#000000"/>
      <path d="M708.56,329.77 C701.83,365.17 635.33,392.96 554.27,392.96 C472.5,392.96 405.54,364.68 399.8,328.85 L399.23,328.85 L399.23,386.54 C425.97,414.48 485.17,433.91 553.89,433.91 C622.61,433.91 681.81,414.48 708.56,386.54 z" fill="#000000"/>
      <path d="M708.56,399.97 C701.83,435.36 635.33,463.16 554.27,463.16 C472.5,463.16 405.54,434.88 399.8,399.04 L399.23,399.04 L399.23,456.74 C425.97,484.68 485.17,504.1 553.89,504.1 C622.61,504.1 681.81,484.68 708.56,456.74 z" fill="#000000"/>
      <path d="M708.56,477.18 C701.83,512.58 635.33,540.37 554.27,540.37 C472.5,540.37 405.54,512.1 399.8,476.26 L399.23,476.26 L399.23,538.48 C399.225,541.16 400.342,543.72 402.31,545.54 C430.31,571.25 487.7,581.32 553.89,581.32 C620.08,581.32 677.44,571.25 705.48,545.54 C707.448,543.72 708.565,541.16 708.56,538.48 z" fill="#000000"/>
    </g>
    <path d="M705.92,301.5 C705.92,338.995 637.814,369.39 553.8,369.39 C469.786,369.39 401.68,338.995 401.68,301.5 C401.68,264.005 469.786,233.61 553.8,233.61 C637.814,233.61 705.92,264.005 705.92,301.5 z" fill="#D71920"/>
    <path d="M708.56,325.77 C701.83,361.17 635.33,388.96 554.27,388.96 C472.5,388.96 405.54,360.68 399.8,324.85 L399.23,324.85 L399.23,382.54 C425.97,410.48 485.17,429.91 553.89,429.91 C622.61,429.91 681.81,410.48 708.56,382.54 z" fill="#D71920"/>
    <path d="M708.56,395.97 C701.83,431.36 635.33,459.16 554.27,459.16 C472.5,459.16 405.54,430.88 399.8,395.04 L399.23,395.04 L399.23,452.74 C425.97,480.68 485.17,500.1 553.89,500.1 C622.61,500.1 681.81,480.68 708.56,452.74 z" fill="#D71920"/>
    <path d="M708.56,473.18 C701.83,508.58 635.33,536.37 554.27,536.37 C472.5,536.37 405.54,508.1 399.8,472.26 L399.23,472.26 L399.23,534.48 C399.225,537.16 400.342,539.72 402.31,541.54 C430.31,567.25 487.7,577.32 553.89,577.32 C620.08,577.32 677.44,567.25 705.48,541.54 C707.448,539.72 708.565,537.16 708.56,534.48 z" fill="#D71920"/>
    <path d="M361.45,191.97 C349.852,191.97 340.45,201.372 340.45,212.97 C340.45,224.568 349.852,233.97 361.45,233.97 C373.048,233.97 382.45,224.568 382.45,212.97 C382.45,201.372 373.048,191.97 361.45,191.97 z M361.45,196.04 C370.839,196.04 378.45,203.651 378.45,213.04 C378.45,222.429 370.839,230.04 361.45,230.04 C352.061,230.04 344.45,222.429 344.45,213.04 C344.45,203.651 352.061,196.04 361.45,196.04 M373.34,207.09 L371.43,205.16 C371.242,204.964 370.982,204.854 370.71,204.854 C370.438,204.854 370.178,204.964 369.99,205.16 L357.99,217.05 L352.93,211.91 C352.742,211.714 352.482,211.604 352.21,211.604 C351.938,211.604 351.678,211.714 351.49,211.91 L349.57,213.82 C349.374,214.008 349.264,214.268 349.264,214.54 C349.264,214.812 349.374,215.072 349.57,215.26 L357.27,223.02 C357.458,223.216 357.718,223.326 357.99,223.326 C358.262,223.326 358.522,223.216 358.71,223.02 L373.34,208.5 C373.536,208.312 373.646,208.052 373.646,207.78 C373.646,207.508 373.536,207.248 373.34,207.06 z" fill="#3ACC6C" opacity="0.7"/>
    <path d="M128.97,298.29 C117.68,300.913 110.65,312.186 113.262,323.478 C115.874,334.771 127.141,341.811 138.436,339.209 C149.73,336.608 156.781,325.347 154.19,314.05 C152.942,308.612 149.582,303.893 144.85,300.937 C140.119,297.98 134.405,297.028 128.97,298.29 z M129.89,302.29 C136.593,300.726 143.578,303.358 147.582,308.957 C151.585,314.556 151.818,322.017 148.17,327.854 C144.523,333.691 137.715,336.753 130.928,335.609 C124.14,334.465 118.712,329.34 117.18,322.63 C115.097,313.507 120.777,304.417 129.89,302.29 M143.96,310.39 L141.66,308.91 C141.433,308.763 141.156,308.713 140.892,308.774 C140.628,308.834 140.4,308.999 140.26,309.23 L131.26,323.51 L125.17,319.66 C124.943,319.513 124.666,319.463 124.402,319.524 C124.138,319.584 123.91,319.749 123.77,319.98 L122.32,322.28 C122.173,322.507 122.123,322.784 122.184,323.048 C122.244,323.312 122.409,323.54 122.64,323.68 L131.88,329.51 C132.108,329.661 132.387,329.712 132.653,329.651 C132.92,329.591 133.15,329.424 133.29,329.19 L144.29,311.76 C144.438,311.534 144.489,311.258 144.431,310.995 C144.372,310.731 144.21,310.502 143.98,310.36 z" fill="#3ACC6C" opacity="0.7"/>
    <path d="M667.52,195.01 C655.922,195.01 646.52,204.412 646.52,216.01 C646.52,227.608 655.922,237.01 667.52,237.01 C679.118,237.01 688.52,227.608 688.52,216.01 C688.52,204.412 679.118,195.01 667.52,195.01 z M667.52,199.08 C676.909,199.08 684.52,206.691 684.52,216.08 C684.52,225.469 676.909,233.08 667.52,233.08 C658.131,233.08 650.52,225.469 650.52,216.08 C650.52,206.691 658.131,199.08 667.52,199.08 M679.41,210.13 L677.5,208.2 C677.312,208.004 677.052,207.894 676.78,207.894 C676.508,207.894 676.248,208.004 676.06,208.2 L664.06,220.09 L658.99,214.98 C658.802,214.784 658.542,214.674 658.27,214.674 C657.998,214.674 657.738,214.784 657.55,214.98 L655.64,216.91 C655.444,217.098 655.334,217.358 655.334,217.63 C655.334,217.902 655.444,218.162 655.64,218.35 L663.34,226.11 C663.528,226.306 663.788,226.416 664.06,226.416 C664.332,226.416 664.591,226.306 664.78,226.11 L679.41,211.59 C679.606,211.402 679.716,211.142 679.716,210.87 C679.716,210.598 679.606,210.338 679.41,210.15 z" fill="#3ACC6C" opacity="0.7"/>
    <path d="M908.45,298.72 C896.89,297.823 886.791,306.464 885.889,318.023 C884.987,329.582 893.623,339.685 905.182,340.593 C916.74,341.5 926.847,332.868 927.76,321.31 C928.199,315.753 926.41,310.249 922.788,306.012 C919.166,301.775 914.008,299.151 908.45,298.72 z M908.13,302.77 C914.994,303.286 920.869,307.889 923.012,314.43 C925.154,320.971 923.141,328.159 917.913,332.636 C912.684,337.112 905.272,337.994 899.139,334.87 C893.006,331.745 889.363,325.231 889.91,318.37 C890.255,313.884 892.369,309.719 895.786,306.793 C899.204,303.867 903.645,302.42 908.13,302.77 M919.13,314.71 L917.37,312.64 C917.199,312.431 916.95,312.3 916.68,312.278 C916.411,312.255 916.144,312.342 915.94,312.52 L903.07,323.45 L898.41,317.96 C898.238,317.748 897.988,317.615 897.716,317.592 C897.444,317.57 897.174,317.659 896.97,317.84 L894.9,319.6 C894.692,319.773 894.564,320.022 894.543,320.292 C894.522,320.561 894.611,320.827 894.79,321.03 L901.86,329.36 C902.031,329.569 902.28,329.7 902.55,329.722 C902.819,329.745 903.086,329.658 903.29,329.48 L919.01,316.14 C919.219,315.969 919.35,315.72 919.372,315.45 C919.395,315.181 919.308,314.914 919.13,314.71 z" fill="#3ACC6C" opacity="0.7"/>
  </g>
</svg>
