<?xml version="1.0" encoding="UTF-8"?>
<!DOCTYPE svg PUBLIC "-//W3C//DTD SVG 1.1//EN" "http://www.w3.org/Graphics/SVG/1.1/DTD/svg11.dtd">
<svg version="1.1" xmlns="http://www.w3.org/2000/svg" xmlns:xlink="http://www.w3.org/1999/xlink" x="0" y="0" width="1009.54" height="839.64" viewBox="0, 0, 1009.54, 839.64">
  <g id="Layer_1">
    <path d="M354.29,234.34 C354.29,234.34 382.01,198.22 397.13,201.02 C397.13,201.02 380.33,233.22 354.29,238.02 z" fill="#FF6347"/>
    <path d="M368.26,189.82 C368.26,189.82 392.77,162.12 406,162.19 C406,162.19 386.66,199.19 367.26,198.85 z" fill="#FF6347"/>
    <path d="M645.09,289.82 L649.37,289.82 C650.635,289.82 651.66,290.845 651.66,292.11 L651.66,360.55 C651.66,361.815 650.635,362.84 649.37,362.84 L645.09,362.84 C643.825,362.84 642.8,361.815 642.8,360.55 L642.8,292.11 C642.8,290.845 643.825,289.82 645.09,289.82 z" fill="#3A3768"/>
    <path d="M350.48,276.63 L351.5,276.63 C352.765,276.63 353.79,277.655 353.79,278.92 L353.79,316.18 C353.79,317.445 352.765,318.47 351.5,318.47 L350.48,318.47 C349.215,318.47 348.19,317.445 348.19,316.18 L348.19,278.92 C348.19,277.655 349.215,276.63 350.48,276.63 z" fill="#3A3768"/>
    <path d="M350.57,333.11 L351.32,333.11 C352.585,333.11 353.61,334.135 353.61,335.4 L353.61,373.02 C353.61,374.285 352.585,375.31 351.32,375.31 L350.57,375.31 C349.305,375.31 348.28,374.285 348.28,373.02 L348.28,335.4 C348.28,334.135 349.305,333.11 350.57,333.11 z" fill="#3A3768"/>
    <path d="M390.17,153.17 L608.59,153.17 C630.124,153.17 647.58,170.626 647.58,192.16 L647.58,716.57 C647.58,738.104 630.124,755.56 608.59,755.56 L390.17,755.56 C368.636,755.56 351.18,738.104 351.18,716.57 L351.18,192.16 C351.18,170.626 368.636,153.17 390.17,153.17 z" fill="#3A3768"/>
    <path d="M605.77,168.82 L571.77,168.82 L571.77,172.91 C571.77,183.617 563.087,192.296 552.38,192.29 L444.25,192.29 C433.543,192.296 424.86,183.617 424.86,172.91 L424.86,168.82 L393.03,168.82 C380.029,168.82 369.49,179.359 369.49,192.36 L369.49,716.33 C369.49,729.331 380.029,739.87 393.03,739.87 L605.77,739.87 C618.771,739.87 629.31,729.331 629.31,716.33 L629.31,192.4 C629.321,186.15 626.845,180.152 622.429,175.729 C618.014,171.306 612.02,168.82 605.77,168.82 z" fill="#FF6347"/>
    <path d="M474.66,171.16 L508.31,171.16 C510.447,171.16 512.18,172.893 512.18,175.03 L512.18,175.69 C512.18,177.827 510.447,179.56 508.31,179.56 L474.66,179.56 C472.523,179.56 470.79,177.827 470.79,175.69 L470.79,175.03 C470.79,172.893 472.523,171.16 474.66,171.16 z" fill="#E6E8EC"/>
    <path d="M527.98,175.36 C527.98,177.994 525.844,180.13 523.21,180.13 C520.576,180.13 518.44,177.994 518.44,175.36 C518.44,172.726 520.576,170.59 523.21,170.59 C525.844,170.59 527.98,172.726 527.98,175.36 z" fill="#E6E8EC"/>
    <path d="M395.91,226.18 L602.86,226.18 L602.86,665.42 L395.91,665.42 z" fill="#000000" opacity="0.1" display="none"/>
    <path d="M513.5,517.36 C513.5,517.36 505.04,524.42 500.6,517.36 C500.6,517.36 496.6,529.3 500.6,533.3 L500.45,534.11 L499.74,537.67 L490.48,614.67 L498.1,627.82 L511.97,610.42 L510.85,538.42 L510.35,534.29 L510.23,533.29 L512.6,533.29 C512.6,533.29 518.89,522.42 513.5,517.36 z" fill="#000000" opacity="0.1" display="none"/>
    <path d="M515.5,517.36 C515.5,517.36 507.04,524.42 502.6,517.36 C502.6,517.36 498.6,529.3 502.6,533.3 L502.45,534.11 L501.74,537.67 L492.48,614.67 L500.1,627.82 L513.97,610.42 L512.85,538.42 L512.35,534.29 L512.23,533.29 L514.6,533.29 C514.6,533.29 520.89,522.42 515.5,517.36 z" fill="#000000" opacity="0.1" display="none"/>
    <path d="M528.6,497.17 L508.41,518.57 L507.85,519.17 L507.12,518.74 C502.9,516.24 481.79,503.5 483.6,499.67 C484.6,497.49 485.19,492.95 485.5,489.04 C485.5,488.57 485.56,488.11 485.6,487.66 C485.8,484.57 485.85,482.17 485.85,482.17 C485.85,482.17 523.85,475.67 522.35,482.17 C521.74,484.8 522.65,487.76 523.94,490.35 C524.32,491.1 524.74,491.81 525.15,492.48 C526.16,494.142 527.314,495.711 528.6,497.17 z" fill="#FFC4D0" display="none"/>
    <path d="M523.94,490.35 C512.23,498.979 495.99,497.84 485.6,487.66 C485.8,484.57 485.85,482.17 485.85,482.17 C485.85,482.17 523.85,475.67 522.35,482.17 C521.77,484.82 522.65,487.76 523.94,490.35 z" fill="#000000" opacity="0.1" display="none"/>
    <path d="M536.01,465.46 C536.238,481.46 523.737,494.759 507.754,495.519 C491.77,496.28 478.063,484.229 476.77,468.28 Q476.65,466.88 476.65,465.46 C476.453,454.732 482.064,444.733 491.323,439.312 C500.582,433.89 512.048,433.89 521.307,439.312 C530.566,444.733 536.177,454.732 535.98,465.46 z" fill="#FFC4D0" display="none"/>
    <path d="M535.47,630.92 L530.07,632.39 L517.6,635.82 C514.714,637.97 511.466,639.586 508.01,640.59 C500.38,642.52 495.45,638.32 491.35,631.82 C489.7,629.22 490.53,627.14 492.69,625.51 C497.89,621.58 510.75,620.3 514.69,620.82 C517.278,621.031 519.878,620.626 522.28,619.64 C523.985,619.02 525.628,618.243 527.19,617.32 z" fill="#FFC4D0" display="none"/>
    <path d="M535.47,630.92 L530.07,632.39 C528.52,627.72 525.97,621.86 522.32,619.61 C524.025,618.99 525.668,618.213 527.23,617.29 z" fill="#000000" opacity="0.1" display="none"/>
    <path d="M571.99,618.06 C569.75,619.87 567.85,621.52 567.85,621.52 C567.85,621.52 541.85,629.67 536.85,639.92 C536.85,639.92 532.85,619.92 524.35,619.67 C524.35,619.67 533.5,616.08 536.14,613.01 L561.77,611.67 C561.77,611.67 566.77,614.39 571.99,618.06 z" fill="#000000" opacity="0.1" display="none"/>
    <path d="M571.6,539.67 L577.35,548.17 L579.1,574.67 C579.1,574.67 579.6,600.17 579.1,601.17 L579.6,600.17 C579.6,600.17 578.6,610.17 575.6,611.92 C572.6,613.67 565.85,619.52 565.85,619.52 C565.85,619.52 539.85,627.67 534.85,637.92 C534.85,637.92 530.85,617.92 522.35,617.67 C522.35,617.67 535.1,612.67 534.85,609.42 C534.85,609.42 544.6,600.67 545.35,598.42 C546.1,596.17 550.97,595.92 550.97,595.92 C550.97,595.92 552.1,580.42 549.85,577.92 C547.6,575.42 546.35,570.67 546.35,570.67 z" fill="#EAEAF2" display="none"/>
    <path d="M508.01,640.56 C500.38,642.49 495.45,638.29 491.35,631.79 C489.7,629.19 490.53,627.11 492.69,625.48 L493.47,625.79 C493.47,625.79 507.22,631.75 508.01,640.56 z" fill="#000000" opacity="0.1" display="none"/>
    <path d="M504.85,648.55 C495.85,661.05 479.1,643.67 477.85,640.17 C477.4,638.9 475.69,637.77 473.72,636.86 C471.221,635.768 468.627,634.908 465.97,634.29 L480.85,622.17 L483.7,623.31 L492.47,626.82 C492.47,626.82 513.85,636.05 504.85,648.55 z" fill="#FFC4D0" display="none"/>
    <path d="M483.7,623.31 C475.5,627.21 473.75,632.82 473.7,636.86 C471.201,635.768 468.607,634.908 465.95,634.29 L480.83,622.17 z" fill="#000000" opacity="0.1" display="none"/>
    <path d="M470.6,644.92 C470.6,644.92 446.6,625.92 435.1,617.67 C433.661,616.645 432.322,615.486 431.1,614.21 C434.5,612.07 437.04,610.67 437.04,610.67 L466.62,611.87 C467.41,613.24 467.88,614.17 467.88,614.17 L483.88,624.67 C464.6,630.92 470.6,644.92 470.6,644.92 z" fill="#000000" opacity="0.1" display="none"/>
    <path d="M511.35,533.29 L501.6,533.29 C501.541,533.235 501.488,533.175 501.44,533.11 L501.6,532.29 L502.85,529.05 L511.23,532.29 z" fill="#000000" opacity="0.1" display="none"/>
    <path d="M514.5,516.36 C514.5,516.36 506.04,523.42 501.6,516.36 C501.6,516.36 497.6,528.3 501.6,532.3 L513.6,532.3 C513.6,532.3 519.89,521.42 514.5,516.36 z" fill="#BC8487" display="none"/>
    <path d="M525.94,493.17 L538.54,496.42 C538.54,496.42 526.6,527.42 523.97,527.42 L508.85,520.17 z" fill="#000000" opacity="0.1" display="none"/>
    <path d="M528.6,497.17 L508.41,518.57 L507.85,519.17 L507.12,518.74 L524.77,491.82 L525.2,492.53 C526.196,494.173 527.334,495.725 528.6,497.17 z" fill="#000000" opacity="0.1" display="none"/>
    <path d="M524.94,492.17 L537.54,495.42 C537.54,495.42 525.6,526.42 522.97,526.42 L507.85,519.17 z" fill="#EAEAF2" display="none"/>
    <path d="M484.52,489.73 L473.6,493.17 C473.6,493.17 484.35,525.67 487.35,527.42 L506.85,520.17 z" fill="#000000" opacity="0.1" display="none"/>
    <path d="M508.41,518.57 L507.85,519.17 C507.85,519.17 481.6,503.92 483.6,499.67 C484.6,497.49 485.19,492.95 485.5,489.04 L485.5,488.43 z" fill="#000000" opacity="0.1" display="none"/>
    <path d="M485.52,488.73 L474.6,492.17 C474.6,492.17 485.35,524.67 488.35,526.42 L507.85,519.17 z" fill="#EAEAF2" display="none"/>
    <path d="M459.51,541.82 C459.51,541.82 466.09,542.99 465.97,549.82 C465.85,556.65 468.68,540.99 468.68,540.99 z" fill="#000000" opacity="0.1" display="none"/>
    <path d="M461.01,562.82 C461.01,562.82 459.18,573.15 461.01,582.49 C462.84,591.83 462.68,594.99 464.1,595.49 C465.52,595.99 461.01,562.82 461.01,562.82 z" fill="#000000" opacity="0.1" display="none"/>
    <path d="M545.01,561.82 C543.947,561.955 542.999,562.553 542.42,563.455 C541.841,564.356 541.691,565.467 542.01,566.49 C542.85,570.67 545.01,561.82 545.01,561.82 z" fill="#000000" opacity="0.1" display="none"/>
    <path d="M430.68,596.82 C430.68,596.82 452.11,594.99 455.68,598.82 C459.25,602.65 430.68,596.82 430.68,596.82 z" fill="#000000" opacity="0.1" display="none"/>
    <path d="M555.01,598.27 C555.01,598.27 570.68,596.34 574.35,599.01" fill="#000000" opacity="0.1" display="none"/>
    <path d="M561.35,600.82 C561.35,600.82 570.68,601.15 572.85,602.32" fill="#000000" opacity="0.1" display="none"/>
    <path d="M563.18,604.17 C563.18,604.17 571.68,603.84 572.85,605.17" fill="#000000" opacity="0.1" display="none"/>
    <path d="M443.31,651.17 C443.31,651.17 450.59,654.96 449.85,658.83 C449.11,662.7 443.31,651.17 443.31,651.17 z" fill="#000000" opacity="0.1" display="none"/>
    <path d="M556.1,655.4 C556.1,655.4 550.6,659.93 550.75,663.67" fill="#000000" opacity="0.1" display="none"/>
    <path d="M429.1,744.67 C429.1,744.67 429.1,748.92 436.97,755.17" fill="#000000" opacity="0.1" display="none"/>
    <path d="M568.01,734.67 C568.01,734.67 567.17,743.51 559.51,748.09" fill="#000000" opacity="0.1" display="none"/>
    <g opacity="0.1" display="none">
      <path d="M473.6,434.63 C473.6,433.94 473.48,433.23 473.42,432.53 C473.293,434.057 473.34,435.594 473.56,437.11 C473.628,436.285 473.642,435.457 473.6,434.63 z" fill="#000000"/>
      <path d="M472.01,462.57 C472.16,459.67 469.64,457.34 468.91,454.57 C468.873,454.436 468.846,454.299 468.83,454.16 C468.602,455.288 468.629,456.454 468.91,457.57 C469.5,459.86 471.28,461.82 471.84,464.04 C471.89,463.52 471.99,463.05 472.01,462.57 z" fill="#000000"/>
      <path d="M541.95,450.08 C541.088,451.782 539.87,453.279 538.38,454.47 C536.05,456.62 533.16,458.93 530.07,458.23 C525.48,457.23 523.9,450.23 519.22,449.75 C514.54,449.27 511.43,455.75 506.7,455.62 C504.7,455.57 502.9,454.26 501.06,453.35 C497.84,451.76 492.55,450.79 489.06,451.99 C483.83,453.78 482.06,458.62 478.7,462.47 C477.446,463.903 475.958,465.114 474.3,466.05 C473.964,466.272 473.572,466.393 473.17,466.4 C472.659,466.331 472.227,465.985 472.05,465.5 L472.05,465.57 C471.932,466.311 471.869,467.06 471.86,467.81 C471.872,468.581 472.415,469.241 473.17,469.4 C473.572,469.393 473.964,469.272 474.3,469.05 C475.958,468.114 477.446,466.903 478.7,465.47 C482.08,461.62 483.83,456.78 489.06,454.99 C492.59,453.79 497.88,454.76 501.06,456.35 C502.9,457.26 504.66,458.57 506.7,458.62 C511.43,458.74 514.52,452.23 519.22,452.75 C523.92,453.27 525.48,460.19 530.07,461.23 C533.16,461.93 536.07,459.62 538.38,457.47 C539.87,456.279 541.088,454.782 541.95,453.08 C542.507,451.635 542.656,450.064 542.38,448.54 C542.295,449.068 542.151,449.585 541.95,450.08 z" fill="#000000"/>
    </g>
    <path d="M404.77,784.3 C404.77,784.3 412.94,781.78 416.33,786.56" fill="#000000" opacity="0.1" display="none"/>
    <path d="M504.539,369.395 L504.539,350.51 L479.809,375.69 L504.539,400.871 L504.539,381.985 C524.941,381.985 541.635,398.982 541.635,419.755 C541.635,425.894 540.15,431.941 537.306,437.381 L546.272,446.509 C551.33,438.503 554.01,429.225 554,419.755 C554,392.058 531.742,369.395 504.539,369.395 z M504.539,457.526 C484.137,457.526 467.444,440.527 467.444,419.755 C467.444,413.617 468.929,407.569 471.771,402.129 L462.807,393.001 C457.707,400.989 455.024,410.279 455.079,419.755 C455.079,447.453 477.337,470.115 504.539,470.115 L504.539,489 L529.27,463.821 L504.539,438.64 z" fill="#FFFFFF"/>
  </g>
</svg>
