<?xml version="1.0" encoding="UTF-8"?>
<!DOCTYPE svg PUBLIC "-//W3C//DTD SVG 1.1//EN" "http://www.w3.org/Graphics/SVG/1.1/DTD/svg11.dtd">
<svg version="1.1" xmlns="http://www.w3.org/2000/svg" xmlns:xlink="http://www.w3.org/1999/xlink" x="0" y="0" width="289" height="158" viewBox="0, 0, 289, 158">
  <defs>
    <linearGradient id="Gradient_1" gradientUnits="userSpaceOnUse" x1="145.61" y1="91.069" x2="145.61" y2="21.928">
      <stop offset="1" stop-color="#FFF5CC"/>
      <stop offset="1" stop-color="#000000"/>
    </linearGradient>
  </defs>
  <g id="Layer_1">
    <path d="M51.726,30.117 C44.894,28.225 37.156,28.225 31.229,32.173 C25.302,36.12 22.421,44.755 26.29,50.677 C30.818,57.503 40.86,57.338 47.94,61.45 C52.302,64 55.513,68.276 60.123,70.496 C67.284,74.033 76.01,71.73 82.925,67.783 C90.416,63.506 102.763,47.88 88.934,43.439 C83.172,41.548 77.409,41.055 71.729,38.587 C64.979,35.709 58.723,32.008 51.726,30.117 z" fill="#FFFFFF" opacity="0.77"/>
    <path d="M21.441,88.589 C35.024,81.105 51.24,80.448 66.716,80.448 C82.192,80.448 98.244,80.612 112.567,74.526 C136.522,64.164 149.528,38.752 167.638,19.919 C174.717,12.599 184.925,0.017 202.047,0.099 C217.852,0.181 222.132,6.02 229.376,15.067 C235.468,22.633 243.617,53.555 250.12,59.723 C260.328,69.427 272.346,77.322 280.578,88.836 C286.752,97.553 290.456,108.82 287.163,119.018 C284.118,128.476 275.557,135.384 266.255,138.92 C248.886,145.5 229.459,142.045 211.596,136.864 C193.733,131.765 175.952,124.939 157.43,125.022 C138.497,125.104 120.552,132.423 102.936,139.414 C85.32,146.404 67.128,153.312 48.195,152.654 C30.661,152.079 8.353,150.269 1.273,128.558 C-4.077,111.37 8.353,95.909 21.441,88.589 z" fill="#FFFFFF" opacity="0.77"/>
    <path d="M252.5,136.7 C252.5,139.578 251.429,142.374 249.372,144.348 C247.396,146.404 244.597,147.555 241.716,147.638 L49.257,147.638 C43.33,147.638 38.555,142.703 38.555,138.098 L38.555,29.376 C38.555,21.975 44.729,17.616 50.656,17.616 L241.798,17.698 C247.725,17.698 252.5,23.373 252.5,29.459 L252.5,136.7 z" fill="#332F4B"/>
    <path d="M52.385,143.032 C50.08,143.032 47.857,142.045 46.211,140.401 C44.565,138.756 43.659,136.535 43.659,134.233 L43.659,30.692 C43.659,28.389 44.565,26.169 46.211,24.524 C47.857,22.879 50.08,21.975 52.385,21.892 L238.67,21.892 C240.975,21.892 243.198,22.879 244.844,24.524 C246.49,26.169 247.396,28.389 247.396,30.692 L247.396,134.233 C247.396,136.535 246.49,138.756 244.844,140.401 C243.198,142.045 240.975,142.95 238.67,143.032 L52.385,143.032 z" fill="#FFCF01"/>
    <path d="M172.157,142.95 L118.074,21.481 L59.711,142.95 L172.157,142.95 z" fill="#F9A20F" opacity="0.3"/>
    <path d="M228.628,144.595 L174.462,21.564 L116.017,144.595 L228.628,144.595 z" fill="#F9A20F" opacity="0.3"/>
    <path d="M239.246,142.786 C243.774,142.786 247.478,139.085 247.478,134.562 L247.478,55.529 L233.155,22.304 L229.862,22.304 L173.474,142.786 L239.246,142.786 z" fill="#F9A20F" opacity="0.3"/>
    <path d="M114.452,142.95 L60.287,21.564 L43.412,59.805 L43.412,133.081 C43.412,138.509 47.857,142.95 53.29,142.95 L114.452,142.95 z" fill="#F9A20F" opacity="0.3"/>
    <path d="M237.271,11.119 C240.317,11.119 242.786,8.652 242.786,5.609 C242.786,2.566 240.317,0.099 237.271,0.099 C234.225,0.099 231.755,2.566 231.755,5.609 C231.755,8.652 234.225,11.119 237.271,11.119 z" fill="#FFFFFF"/>
    <path d="M267.234,59.559 C268.14,57.585 267.234,55.282 265.259,54.46 C263.283,53.555 260.978,54.46 260.155,56.433 C259.25,58.407 260.155,60.71 262.131,61.532 C264.106,62.355 266.411,61.45 267.234,59.559 z" fill="#F0F0FA" opacity="0.77"/>
    <path d="M30.571,74.691 C32.135,71.319 30.571,67.371 27.195,65.809 C23.82,64.246 19.869,65.809 18.305,69.181 C16.741,72.553 18.305,76.5 21.68,78.063 C25.055,79.543 29.089,78.063 30.571,74.691 z" fill="#FFFFFF" opacity="0.77"/>
    <path d="M30.571,74.691 C32.135,71.319 30.571,67.371 27.195,65.809 C23.82,64.246 19.869,65.809 18.305,69.181 C16.741,72.553 18.305,76.5 21.68,78.063 C25.055,79.543 29.089,78.063 30.571,74.691 z" fill="#FFFFFF" opacity="0.77"/>
    <path d="M273.874,47.49 C275.438,44.118 273.874,40.171 270.499,38.608 C267.124,37.046 263.173,38.608 261.609,41.98 C260.045,45.352 261.609,49.3 264.984,50.862 C268.359,52.343 272.393,50.862 273.874,47.49 z" fill="#FFFFFF" opacity="0.77"/>
    <path d="M53.208,21.893 L238.012,21.893 C240.563,21.893 242.951,22.879 244.762,24.689 C246.573,26.498 247.56,28.883 247.56,31.432 L247.56,91.057 L43.659,91.057 L43.659,31.432 C43.659,28.883 44.647,26.498 46.458,24.689 C48.269,22.879 50.656,21.893 53.208,21.893 z" fill="url(#Gradient_1)" opacity="0.39"/>
    <path d="M63.086,142.292 L63.086,153.806 L64.732,153.806 L64.732,153.066 L227.228,153.066 L227.228,153.806 L228.874,153.806 L228.874,142.292 L63.086,142.292 z" fill="#332F4B"/>
    <path d="M228.792,142.374 L63.086,142.374 L63.086,146.486 L228.874,146.486 L228.874,142.374 L228.792,142.374 z" fill="#305A8A"/>
    <path d="M258.344,150.598 L32.711,150.598 C31.888,150.598 31.229,151.256 31.229,152.079 L31.229,156.191 C31.229,157.013 31.888,157.671 32.711,157.671 L258.344,157.671 C259.167,157.671 259.826,157.013 259.826,156.191 L259.826,152.079 C259.826,151.256 259.167,150.598 258.344,150.598 z" fill="#C0D5ED"/>
    <g>
      <path d="M152.274,92.996 C151.449,94.064 150.46,94.884 149.307,95.458 C148.152,96.031 146.835,96.358 145.518,96.355 C144.201,96.353 142.884,96.021 141.733,95.443 C140.582,94.866 139.513,94.041 138.774,92.971" fill="#000000"/>
      <path d="M152.274,92.996 C151.449,94.064 150.46,94.884 149.307,95.458 C148.152,96.031 146.835,96.358 145.518,96.355 C144.201,96.353 142.884,96.021 141.733,95.443 C140.582,94.866 139.513,94.041 138.774,92.971" fill-opacity="0" stroke="#2D2D2D" stroke-width="4.5" stroke-linecap="round" stroke-miterlimit="10"/>
    </g>
    <path d="M132.576,81.982 C132.576,84.908 130.201,87.28 127.273,87.28 C124.344,87.28 121.97,84.908 121.97,81.982 C121.97,79.057 124.344,76.685 127.273,76.685 C130.201,76.685 132.576,79.057 132.576,81.982 z" fill="#2D2D2D"/>
    <path d="M169.286,81.982 C169.286,84.908 166.911,87.28 163.983,87.28 C161.055,87.28 158.68,84.908 158.68,81.982 C158.68,79.057 161.055,76.685 163.983,76.685 C166.911,76.685 169.286,79.057 169.286,81.982 z" fill="#2D2D2D"/>
    <path d="M270,105 C270,116.046 261.046,125 250,125 C238.954,125 230,116.046 230,105 C230,93.954 238.954,85 250,85 C261.046,85 270,93.954 270,105 z" fill="#332F4B"/>
    <g>
      <path d="M250.183,97 L250.183,113" fill="#000000"/>
      <path d="M250.183,97 L250.183,113" fill-opacity="0" stroke="#FFFFFF" stroke-width="2.5"/>
    </g>
    <g>
      <path d="M258,105.183 L242,105.183" fill="#000000"/>
      <path d="M258,105.183 L242,105.183" fill-opacity="0" stroke="#FFFFFF" stroke-width="2.5"/>
    </g>
  </g>
</svg>
