<?xml version="1.0" encoding="UTF-8"?>
<!DOCTYPE svg PUBLIC "-//W3C//DTD SVG 1.1//EN" "http://www.w3.org/Graphics/SVG/1.1/DTD/svg11.dtd">
<svg version="1.1" xmlns="http://www.w3.org/2000/svg" xmlns:xlink="http://www.w3.org/1999/xlink" x="0" y="0" width="1024" height="768" viewBox="0, 0, 1024, 768">
  <defs>
    <linearGradient id="Gradient_1" gradientUnits="userSpaceOnUse" x1="510.859" y1="743" x2="510.859" y2="713.22">
      <stop offset="0" stop-color="#808080" stop-opacity="0.25"/>
      <stop offset="0.54" stop-color="#808080" stop-opacity="0.12"/>
      <stop offset="1" stop-color="#808080" stop-opacity="0.1"/>
    </linearGradient>
    <linearGradient id="Gradient_2" gradientUnits="userSpaceOnUse" x1="620.199" y1="650.87" x2="620.199" y2="96.87" gradientTransform="matrix(1, 0, 0, 1, -108.19, -77.15)">
      <stop offset="0" stop-color="#808080" stop-opacity="0.25"/>
      <stop offset="0.54" stop-color="#808080" stop-opacity="0.12"/>
      <stop offset="1" stop-color="#808080" stop-opacity="0.1"/>
    </linearGradient>
    <linearGradient id="Gradient_3" gradientUnits="userSpaceOnUse" x1="504.009" y1="371.77" x2="504.009" y2="127.55">
      <stop offset="0" stop-color="#000000" stop-opacity="0.12"/>
      <stop offset="0.55" stop-color="#000000" stop-opacity="0.09"/>
      <stop offset="1" stop-color="#000000" stop-opacity="0.02"/>
    </linearGradient>
    <linearGradient id="Gradient_4" gradientUnits="userSpaceOnUse" x1="504.009" y1="354.36" x2="504.009" y2="325.36">
      <stop offset="0" stop-color="#808080" stop-opacity="0.25"/>
      <stop offset="0.54" stop-color="#808080" stop-opacity="0.12"/>
      <stop offset="1" stop-color="#808080" stop-opacity="0.1"/>
    </linearGradient>
    <linearGradient id="Gradient_5" gradientUnits="userSpaceOnUse" x1="504.009" y1="316.36" x2="504.009" y2="230.36">
      <stop offset="0" stop-color="#808080" stop-opacity="0.25"/>
      <stop offset="0.54" stop-color="#808080" stop-opacity="0.12"/>
      <stop offset="1" stop-color="#808080" stop-opacity="0.1"/>
    </linearGradient>
  </defs>
  <g id="Layer_1">
    <path d="M616.479,525.25 C616.479,525.25 637.369,666.25 760.589,713.25 L261.429,713.25 C384.649,666.25 405.539,525.25 405.539,525.25 z" fill="#E0E0E0"/>
    <path d="M258.919,713.22 L762.789,713.22 L762.789,743 L258.919,743 z" fill="url(#Gradient_1)"/>
    <path d="M261.429,713.22 L760.589,713.22 L760.589,736.19 L261.429,736.19 z" fill="#F5F5F5"/>
    <path d="M922.989,19.72 L100.989,19.72 C94.855,19.786 89.934,24.806 89.989,30.94 L89.989,552.81 C89.884,564.254 99.076,573.616 110.519,573.72 L913.469,573.72 C924.913,573.616 934.105,564.254 933.999,552.81 L933.999,30.94 C934.055,24.802 929.127,19.78 922.989,19.72 z" fill="url(#Gradient_2)"/>
    <path d="M922.969,487.66 L99.039,487.66 L99.039,42.57 C99.05,36.629 103.878,31.823 109.819,31.84 L912.209,31.84 C918.142,31.835 922.958,36.637 922.969,42.57 z" fill="#F5F5F5"/>
    <path d="M902.919,562.85 L119.089,562.85 C108.043,562.85 99.089,553.896 99.089,542.85 L99.089,487.66 L922.969,487.66 L922.969,542.8 C922.982,548.122 920.874,553.229 917.111,556.992 C913.348,560.755 908.241,562.863 902.919,562.85 z" fill="#FFFFFF"/>
    <path d="M140.769,88.44 L886.369,88.44 L886.369,436.73 L140.769,436.73 z" fill="#F50057"/>
    <path d="M139.769,68.76 L886.369,68.76 L886.369,99.44 L139.769,99.44 z" fill="#E0E0E0"/>
    <path d="M165.009,84.44 C165.009,89.411 160.98,93.44 156.009,93.44 C151.039,93.44 147.009,89.411 147.009,84.44 C147.009,79.469 151.039,75.44 156.009,75.44 C160.98,75.44 165.009,79.469 165.009,84.44 z" fill="#FF5252"/>
    <path d="M186.009,84.44 C186.009,89.411 181.98,93.44 177.009,93.44 C172.039,93.44 168.009,89.411 168.009,84.44 C168.009,79.469 172.039,75.44 177.009,75.44 C181.98,75.44 186.009,79.469 186.009,84.44 z" fill="#FFFF00"/>
    <path d="M207.009,84.44 C207.009,89.411 202.98,93.44 198.009,93.44 C193.039,93.44 189.009,89.411 189.009,84.44 C189.009,79.469 193.039,75.44 198.009,75.44 C202.98,75.44 207.009,79.469 207.009,84.44 z" fill="#69F0AE"/>
    <path d="M504.009,127.55 L369.009,371.77 L639.009,371.77 L504.009,127.55 z" fill="url(#Gradient_3)"/>
    <path d="M504.009,146.36 L385.299,362.36 L622.719,362.36 L504.009,146.36 z" fill="#FFFFFF"/>
    <path d="M518.509,339.86 C518.509,347.868 512.017,354.36 504.009,354.36 C496.001,354.36 489.509,347.868 489.509,339.86 C489.509,331.852 496.001,325.36 504.009,325.36 C512.017,325.36 518.509,331.852 518.509,339.86 z" fill="url(#Gradient_4)"/>
    <path d="M516.009,339.86 C516.009,346.487 510.637,351.86 504.009,351.86 C497.382,351.86 492.009,346.487 492.009,339.86 C492.009,333.233 497.382,327.86 504.009,327.86 C510.637,327.86 516.009,333.233 516.009,339.86 z" fill="#F50057"/>
    <path d="M500.009,230.36 L508.009,230.36 L508.009,316.36 L500.009,316.36 z" fill="url(#Gradient_5)"/>
    <path d="M501.509,230.86 L506.509,230.86 L506.509,314.86 L501.509,314.86 z" fill="#F50057"/>
  </g>
</svg>
