<?xml version="1.0" encoding="UTF-8"?>
<!DOCTYPE svg PUBLIC "-//W3C//DTD SVG 1.1//EN" "http://www.w3.org/Graphics/SVG/1.1/DTD/svg11.dtd">
<svg version="1.1" xmlns="http://www.w3.org/2000/svg" xmlns:xlink="http://www.w3.org/1999/xlink" x="0" y="0" width="904" height="754.77" viewBox="0, 0, 904, 754.77">
  <defs>
    <linearGradient id="Gradient_1" gradientUnits="userSpaceOnUse" x1="302.07" y1="419.818" x2="302.07" y2="180.5">
      <stop offset="0" stop-color="#808080" stop-opacity="0.25"/>
      <stop offset="0.54" stop-color="#808080" stop-opacity="0.12"/>
      <stop offset="1" stop-color="#808080" stop-opacity="0.1"/>
    </linearGradient>
    <linearGradient id="Gradient_2" gradientUnits="userSpaceOnUse" x1="379.75" y1="243.178" x2="379.75" y2="201.379">
      <stop offset="0" stop-color="#808080" stop-opacity="0.25"/>
      <stop offset="0.54" stop-color="#808080" stop-opacity="0.12"/>
      <stop offset="1" stop-color="#808080" stop-opacity="0.1"/>
    </linearGradient>
    <linearGradient id="Gradient_3" gradientUnits="userSpaceOnUse" x1="379.75" y1="320.396" x2="379.75" y2="278.597">
      <stop offset="0" stop-color="#808080" stop-opacity="0.25"/>
      <stop offset="0.54" stop-color="#808080" stop-opacity="0.12"/>
      <stop offset="1" stop-color="#808080" stop-opacity="0.1"/>
    </linearGradient>
    <linearGradient id="Gradient_4" gradientUnits="userSpaceOnUse" x1="379.75" y1="398.126" x2="379.75" y2="356.326">
      <stop offset="0" stop-color="#808080" stop-opacity="0.25"/>
      <stop offset="0.54" stop-color="#808080" stop-opacity="0.12"/>
      <stop offset="1" stop-color="#808080" stop-opacity="0.1"/>
    </linearGradient>
    <linearGradient id="Gradient_5" gradientUnits="userSpaceOnUse" x1="550.43" y1="574.27" x2="550.43" y2="565.401">
      <stop offset="0" stop-color="#808080" stop-opacity="0.25"/>
      <stop offset="0.54" stop-color="#808080" stop-opacity="0.12"/>
      <stop offset="1" stop-color="#808080" stop-opacity="0.1"/>
    </linearGradient>
    <linearGradient id="Gradient_6" gradientUnits="userSpaceOnUse" x1="699.024" y1="597.124" x2="699.024" y2="432.786" gradientTransform="matrix(1, 0, 0, 1, -148, -72.62)">
      <stop offset="0" stop-color="#808080" stop-opacity="0.25"/>
      <stop offset="0.54" stop-color="#808080" stop-opacity="0.12"/>
      <stop offset="1" stop-color="#808080" stop-opacity="0.1"/>
    </linearGradient>
  </defs>
  <g id="Layer_1">
    <path d="M190,180.5 L414.141,180.5 L414.141,419.818 L190,419.818 z" fill="url(#Gradient_1)"/>
    <path d="M193.703,340.284 L410.432,340.284 L410.432,414.606 L193.703,414.606 z" fill="#FFFFFF"/>
    <path d="M211.492,357.912 L219.891,357.912 L219.891,395.997 L211.492,395.997 z" fill="#64FFDA"/>
    <g opacity="0.7">
      <path d="M228.071,357.912 L236.47,357.912 L236.47,395.997 L228.071,395.997 z" fill="#64FFDA"/>
    </g>
    <g opacity="0.6">
      <path d="M244.655,357.912 L253.054,357.912 L253.054,395.997 L244.655,395.997 z" fill="#64FFDA"/>
    </g>
    <g opacity="0.5">
      <path d="M261.234,357.912 L269.633,357.912 L269.633,395.997 L261.234,395.997 z" fill="#64FFDA"/>
    </g>
    <g opacity="0.5">
      <path d="M277.813,357.912 L286.211,357.912 L286.211,395.997 L277.813,395.997 z" fill="#64FFDA"/>
    </g>
    <g opacity="0.4">
      <path d="M294.392,357.912 L302.79,357.912 L302.79,395.997 L294.392,395.997 z" fill="#64FFDA"/>
    </g>
    <g opacity="0.3">
      <path d="M310.976,357.912 L319.374,357.912 L319.374,395.997 L310.976,395.997 z" fill="#64FFDA"/>
    </g>
    <path d="M400.016,376.709 C400.016,387.416 390.943,396.096 379.75,396.096 C368.558,396.096 359.485,387.416 359.485,376.709 C359.485,366.002 368.558,357.323 379.75,357.323 C390.943,357.323 400.016,366.002 400.016,376.709 z" fill="#3ACC6C"/>
    <path d="M193.703,263.066 L410.432,263.066 L410.432,337.388 L193.703,337.388 z" fill="#FFFFFF"/>
    <path d="M211.492,280.694 L219.891,280.694 L219.891,318.779 L211.492,318.779 z" fill="#64FFDA"/>
    <g opacity="0.7">
      <path d="M228.071,280.694 L236.47,280.694 L236.47,318.779 L228.071,318.779 z" fill="#64FFDA"/>
    </g>
    <g opacity="0.6">
      <path d="M244.655,280.694 L253.054,280.694 L253.054,318.779 L244.655,318.779 z" fill="#64FFDA"/>
    </g>
    <g opacity="0.5">
      <path d="M261.234,280.694 L269.633,280.694 L269.633,318.779 L261.234,318.779 z" fill="#64FFDA"/>
    </g>
    <g opacity="0.5">
      <path d="M277.813,280.694 L286.211,280.694 L286.211,318.779 L277.813,318.779 z" fill="#64FFDA"/>
    </g>
    <g opacity="0.4">
      <path d="M294.392,280.694 L302.79,280.694 L302.79,318.779 L294.392,318.779 z" fill="#64FFDA"/>
    </g>
    <g opacity="0.3">
      <path d="M310.976,280.694 L319.374,280.694 L319.374,318.779 L310.976,318.779 z" fill="#64FFDA"/>
    </g>
    <path d="M400.016,299.497 C400.016,310.203 390.943,318.883 379.75,318.883 C368.558,318.883 359.485,310.203 359.485,299.497 C359.485,288.79 368.558,280.11 379.75,280.11 C390.943,280.11 400.016,288.79 400.016,299.497 z" fill="#3ACC6C"/>
    <path d="M193.703,185.848 L410.432,185.848 L410.432,260.17 L193.703,260.17 z" fill="#FFFFFF"/>
    <path d="M211.492,203.481 L219.891,203.481 L219.891,241.566 L211.492,241.566 z" fill="#64FFDA"/>
    <g opacity="0.7">
      <path d="M228.071,203.481 L236.47,203.481 L236.47,241.566 L228.071,241.566 z" fill="#64FFDA"/>
    </g>
    <g opacity="0.6">
      <path d="M244.655,203.481 L253.054,203.481 L253.054,241.566 L244.655,241.566 z" fill="#64FFDA"/>
    </g>
    <g opacity="0.5">
      <path d="M261.234,203.481 L269.633,203.481 L269.633,241.566 L261.234,241.566 z" fill="#64FFDA"/>
    </g>
    <g opacity="0.5">
      <path d="M277.813,203.481 L286.211,203.481 L286.211,241.566 L277.813,241.566 z" fill="#64FFDA"/>
    </g>
    <g opacity="0.4">
      <path d="M294.392,203.481 L302.79,203.481 L302.79,241.566 L294.392,241.566 z" fill="#64FFDA"/>
    </g>
    <g opacity="0.3">
      <path d="M310.976,203.481 L319.374,203.481 L319.374,241.566 L310.976,241.566 z" fill="#64FFDA"/>
    </g>
    <path d="M401.597,222.278 C401.597,233.821 391.816,243.178 379.75,243.178 C367.685,243.178 357.904,233.821 357.904,222.278 C357.904,210.736 367.685,201.379 379.75,201.379 C391.816,201.379 401.597,210.736 401.597,222.278 z" fill="url(#Gradient_2)"/>
    <path d="M401.597,299.497 C401.597,311.039 391.816,320.396 379.75,320.396 C367.685,320.396 357.904,311.039 357.904,299.497 C357.904,287.954 367.685,278.597 379.75,278.597 C391.816,278.597 401.597,287.954 401.597,299.497 z" fill="url(#Gradient_3)"/>
    <path d="M401.597,377.226 C401.597,388.768 391.816,398.126 379.75,398.126 C367.685,398.126 357.904,388.768 357.904,377.226 C357.904,365.683 367.685,356.326 379.75,356.326 C391.816,356.326 401.597,365.683 401.597,377.226 z" fill="url(#Gradient_4)"/>
    <path d="M400.016,222.278 C400.016,232.985 390.943,241.665 379.75,241.665 C368.558,241.665 359.485,232.985 359.485,222.278 C359.485,211.571 368.558,202.892 379.75,202.892 C390.943,202.892 400.016,211.571 400.016,222.278 z" fill="#3ACC6C"/>
    <g opacity="0.7">
      <path d="M422.223,263.066 L425.495,263.066" fill-opacity="0" stroke="#3ACC6C" stroke-width="4" stroke-linecap="round" stroke-linejoin="round"/>
      <path d="M454.699,263.066 L545.735,263.066" fill-opacity="0" stroke="#3ACC6C" stroke-width="4" stroke-dasharray="12.52,33.38" stroke-linecap="round" stroke-linejoin="round"/>
      <path d="M559.837,263.066 L563.109,263.066 L563.109,266.196" fill-opacity="0" stroke="#3ACC6C" stroke-width="4" stroke-linecap="round" stroke-linejoin="round" display="none"/>
      <path d="M563.109,295.791 L563.109,355.939" fill-opacity="0" stroke="#3ACC6C" stroke-width="4" stroke-dasharray="11.93,31.8" stroke-linecap="round" stroke-linejoin="round"/>
      <path d="M563.109,351.234 L563.109,354.365" fill-opacity="0" stroke="#3ACC6C" stroke-width="4" stroke-linecap="round" stroke-linejoin="round" display="none"/>
    </g>
    <path d="M583.315,509.416 C583.315,509.416 589.815,551.404 628.181,565.401 L472.755,565.401 C511.121,551.404 517.621,509.416 517.621,509.416 z" fill="#E0E0E0"/>
    <path d="M471.997,565.401 L628.868,565.401 L628.868,574.27 L471.997,574.27 z" fill="url(#Gradient_5)"/>
    <path d="M472.777,565.401 L628.181,565.401 L628.181,572.246 L472.777,572.246 z" fill="#F5F5F5"/>
    <path d="M677.137,360.166 L424.911,360.166 C421.673,360.166 419.049,362.677 419.049,365.774 L419.049,517.795 C419.049,521.5 422.189,524.504 426.062,524.504 L675.987,524.504 C679.86,524.504 683,521.5 683,517.795 L683,365.774 C683,362.677 680.375,360.166 677.137,360.166 z" fill="url(#Gradient_6)"/>
    <path d="M428.085,362.462 L672.873,362.462 C676.111,362.462 678.735,364.973 678.735,368.07 L678.735,498.221 L422.223,498.221 L422.223,368.075 C422.22,364.976 424.845,362.462 428.085,362.462 z" fill="#FFFFFF"/>
    <path d="M671.722,520.612 L429.236,520.612 C425.363,520.612 422.223,517.608 422.223,513.903 L422.223,498.221 L678.735,498.221 L678.735,513.903 C678.735,517.608 675.595,520.612 671.722,520.612 z" fill="#F5F5F5"/>
    <path d="M434.902,373.459 L667.032,373.459 L667.032,483.049 L434.902,483.049 z" fill="#3ACC6C"/>
    <path d="M444.086,380.732 L667.179,380.732 L667.179,373.423 L435.049,373.423 L435.049,483.013 L444.086,483.013 L444.086,380.732 z" fill="#FFFFFF" opacity="0.2"/>
    <g opacity="0.7" display="none">
      <path d="M560.841,194.44 C519.578,194.44 486.127,226.44 486.127,265.914 C486.127,305.388 519.578,337.388 560.841,337.388 C602.104,337.388 635.554,305.388 635.554,265.914 C635.554,226.44 602.104,194.44 560.841,194.44 z M560.841,323.774 C527.437,323.774 500.358,297.869 500.358,265.914 C500.358,233.959 527.437,208.054 560.841,208.054 C594.244,208.054 621.323,233.959 621.323,265.914 C621.361,281.268 615,296.002 603.648,306.855 C592.296,317.709 576.89,323.785 560.841,323.74 z" fill="#D71920"/>
      <path d="M583.753,296.92 L593.145,287.935 C593.934,287.182 594.377,286.159 594.377,285.093 C594.377,284.027 593.934,283.004 593.145,282.251 L576.175,266.016 L593.145,249.781 C593.932,249.034 594.374,248.017 594.374,246.957 C594.374,245.896 593.932,244.879 593.145,244.132 L583.753,235.112 C582.965,234.358 581.897,233.934 580.782,233.934 C579.668,233.934 578.599,234.358 577.811,235.112 L560.841,251.347 L543.87,235.112 C543.089,234.36 542.026,233.937 540.917,233.937 C539.808,233.937 538.746,234.36 537.964,235.112 L528.536,244.132 C527.75,244.879 527.307,245.896 527.307,246.957 C527.307,248.017 527.75,249.034 528.536,249.781 L545.507,266.016 L528.536,282.251 C527.747,283.004 527.304,284.027 527.304,285.093 C527.304,286.159 527.747,287.182 528.536,287.935 L537.964,296.92 C538.736,297.69 539.802,298.125 540.917,298.125 C542.032,298.125 543.098,297.69 543.87,296.92 L560.841,280.686 L577.811,296.92 C578.599,297.675 579.668,298.099 580.782,298.099 C581.897,298.099 582.965,297.675 583.753,296.92 z" fill="#D71920"/>
    </g>
    <path d="M603.117,230.545 L596.129,223.401 C595.44,222.673 594.484,222.258 593.482,222.249 C592.479,222.241 591.517,222.64 590.815,223.356 L546.158,266.864 L527.608,247.85 C526.92,247.134 525.972,246.726 524.979,246.717 C523.986,246.709 523.031,247.101 522.331,247.806 L515.148,254.795 C514.421,255.484 514.005,256.44 513.996,257.442 C513.988,258.444 514.388,259.407 515.103,260.109 L543.275,288.983 C543.965,289.711 544.92,290.127 545.923,290.135 C546.925,290.143 547.888,289.744 548.589,289.028 L603.035,235.896 C603.779,235.21 604.209,234.25 604.225,233.238 C604.24,232.226 603.84,231.253 603.117,230.545 z M603.117,230.545 L596.129,223.401 C595.44,222.673 594.484,222.258 593.482,222.249 C592.479,222.241 591.517,222.64 590.815,223.356 L546.158,266.864 L527.608,247.85 C526.92,247.134 525.972,246.726 524.979,246.717 C523.986,246.709 523.031,247.101 522.331,247.806 L515.148,254.795 C514.421,255.484 514.005,256.44 513.996,257.442 C513.988,258.444 514.388,259.407 515.103,260.109 L543.275,288.983 C543.965,289.711 544.92,290.127 545.923,290.135 C546.925,290.143 547.888,289.744 548.589,289.028 L603.035,235.896 C603.779,235.21 604.209,234.25 604.225,233.238 C604.24,232.226 603.84,231.253 603.117,230.545 z M603.117,230.545 L596.129,223.401 C595.44,222.673 594.484,222.258 593.482,222.249 C592.479,222.241 591.517,222.64 590.815,223.356 L546.158,266.864 L527.608,247.85 C526.92,247.134 525.972,246.726 524.979,246.717 C523.986,246.709 523.031,247.101 522.331,247.806 L515.148,254.795 C514.421,255.484 514.005,256.44 513.996,257.442 C513.988,258.444 514.388,259.407 515.103,260.109 L543.275,288.983 C543.965,289.711 544.92,290.127 545.923,290.135 C546.925,290.143 547.888,289.744 548.589,289.028 L603.035,235.896 C603.779,235.21 604.209,234.25 604.225,233.238 C604.24,232.226 603.84,231.253 603.117,230.545 z M603.117,230.545 L596.129,223.401 C595.44,222.673 594.484,222.258 593.482,222.249 C592.479,222.241 591.517,222.64 590.815,223.356 L546.158,266.864 L527.608,247.85 C526.92,247.134 525.972,246.726 524.979,246.717 C523.986,246.709 523.031,247.101 522.331,247.806 L515.148,254.795 C514.421,255.484 514.005,256.44 513.996,257.442 C513.988,258.444 514.388,259.407 515.103,260.109 L543.275,288.983 C543.965,289.711 544.92,290.127 545.923,290.135 C546.925,290.143 547.888,289.744 548.589,289.028 L603.035,235.896 C603.779,235.21 604.209,234.25 604.225,233.238 C604.24,232.226 603.84,231.253 603.117,230.545 z M559.714,174.417 C516.913,174.059 481.921,208.465 481.557,251.266 C481.193,294.066 515.594,329.053 558.395,329.411 C601.195,329.769 636.187,295.363 636.551,252.563 C636.915,209.762 602.514,174.775 559.714,174.417 z M558.52,314.65 C523.872,314.36 496.024,286.037 496.318,251.389 C496.613,216.741 524.94,188.888 559.588,189.178 C594.236,189.468 622.085,217.791 621.79,252.439 C621.678,269.08 614.94,284.992 603.066,296.653 C591.192,308.314 575.161,314.765 558.521,314.576 z M603.117,230.619 L596.128,223.475 C595.439,222.747 594.483,222.331 593.481,222.323 C592.479,222.315 591.516,222.714 590.814,223.43 L546.157,266.938 L527.607,247.924 C526.919,247.208 525.971,246.799 524.978,246.791 C523.985,246.783 523.03,247.175 522.33,247.879 L515.148,254.868 C514.42,255.558 514.004,256.514 513.996,257.516 C513.987,258.518 514.387,259.481 515.103,260.182 L543.275,289.057 C543.964,289.785 544.92,290.2 545.922,290.209 C546.924,290.217 547.887,289.818 548.589,289.102 L603.034,235.97 C603.802,235.283 604.248,234.306 604.264,233.275 C604.28,232.245 603.864,231.255 603.117,230.545 z M603.117,230.619 L596.128,223.475 C595.439,222.747 594.483,222.331 593.481,222.323 C592.479,222.315 591.516,222.714 590.814,223.43 L546.157,266.938 L527.607,247.924 C526.919,247.208 525.971,246.799 524.978,246.791 C523.985,246.783 523.03,247.175 522.33,247.879 L515.148,254.868 C514.42,255.558 514.004,256.514 513.996,257.516 C513.987,258.518 514.387,259.481 515.103,260.182 L543.275,289.057 C543.964,289.785 544.92,290.2 545.922,290.209 C546.924,290.217 547.887,289.818 548.589,289.102 L603.034,235.97 C603.802,235.283 604.248,234.306 604.264,233.275 C604.28,232.245 603.864,231.255 603.117,230.545 z M603.117,230.619 L596.128,223.475 C595.439,222.747 594.483,222.331 593.481,222.323 C592.479,222.315 591.516,222.714 590.814,223.43 L546.157,266.938 L527.607,247.924 C526.919,247.208 525.971,246.799 524.978,246.791 C523.985,246.783 523.03,247.175 522.33,247.879 L515.148,254.868 C514.42,255.558 514.004,256.514 513.996,257.516 C513.987,258.518 514.387,259.481 515.103,260.182 L543.275,289.057 C543.964,289.785 544.92,290.2 545.922,290.209 C546.924,290.217 547.887,289.818 548.589,289.102 L603.034,235.97 C603.802,235.283 604.248,234.306 604.264,233.275 C604.28,232.245 603.864,231.255 603.117,230.545 z M603.117,230.619 L596.128,223.475 C595.439,222.747 594.483,222.331 593.481,222.323 C592.479,222.315 591.516,222.714 590.814,223.43 L546.157,266.938 L527.607,247.924 C526.919,247.208 525.971,246.799 524.978,246.791 C523.985,246.783 523.03,247.175 522.33,247.879 L515.148,254.868 C514.42,255.558 514.004,256.514 513.996,257.516 C513.987,258.518 514.387,259.481 515.103,260.182 L543.275,289.057 C543.964,289.785 544.92,290.2 545.922,290.209 C546.924,290.217 547.887,289.818 548.589,289.102 L603.034,235.97 C603.802,235.283 604.248,234.306 604.264,233.275 C604.28,232.245 603.864,231.255 603.117,230.545 z M603.117,230.619 L596.128,223.475 C595.439,222.747 594.483,222.331 593.481,222.323 C592.479,222.315 591.516,222.714 590.814,223.43 L546.157,266.938 L527.607,247.924 C526.919,247.208 525.971,246.799 524.978,246.791 C523.985,246.783 523.03,247.175 522.33,247.879 L515.148,254.868 C514.42,255.558 514.004,256.514 513.996,257.516 C513.987,258.518 514.387,259.481 515.103,260.182 L543.275,289.057 C543.964,289.785 544.92,290.2 545.922,290.209 C546.924,290.217 547.887,289.818 548.589,289.102 L603.034,235.97 C603.802,235.283 604.248,234.306 604.264,233.275 C604.28,232.245 603.864,231.255 603.117,230.545 z" fill="#3ACC6C" opacity="0.7"/>
  </g>
</svg>
