<?xml version="1.0" encoding="UTF-8"?>
<!DOCTYPE svg PUBLIC "-//W3C//DTD SVG 1.1//EN" "http://www.w3.org/Graphics/SVG/1.1/DTD/svg11.dtd">
<svg version="1.1" xmlns="http://www.w3.org/2000/svg" xmlns:xlink="http://www.w3.org/1999/xlink" x="0" y="0" width="904" height="754.77" viewBox="0, 0, 904, 754.77">
  <defs>
    <linearGradient id="Gradient_1" gradientUnits="userSpaceOnUse" x1="302.07" y1="419.818" x2="302.07" y2="180.5">
      <stop offset="0" stop-color="#808080" stop-opacity="0.25"/>
      <stop offset="0.54" stop-color="#808080" stop-opacity="0.12"/>
      <stop offset="1" stop-color="#808080" stop-opacity="0.1"/>
    </linearGradient>
    <linearGradient id="Gradient_2" gradientUnits="userSpaceOnUse" x1="379.75" y1="243.178" x2="379.75" y2="201.379">
      <stop offset="0" stop-color="#808080" stop-opacity="0.25"/>
      <stop offset="0.54" stop-color="#808080" stop-opacity="0.12"/>
      <stop offset="1" stop-color="#808080" stop-opacity="0.1"/>
    </linearGradient>
    <linearGradient id="Gradient_3" gradientUnits="userSpaceOnUse" x1="379.75" y1="320.913" x2="379.75" y2="279.113">
      <stop offset="0" stop-color="#808080" stop-opacity="0.25"/>
      <stop offset="0.54" stop-color="#808080" stop-opacity="0.12"/>
      <stop offset="1" stop-color="#808080" stop-opacity="0.1"/>
    </linearGradient>
    <linearGradient id="Gradient_4" gradientUnits="userSpaceOnUse" x1="379.75" y1="398.126" x2="379.75" y2="356.326">
      <stop offset="0" stop-color="#808080" stop-opacity="0.25"/>
      <stop offset="0.54" stop-color="#808080" stop-opacity="0.12"/>
      <stop offset="1" stop-color="#808080" stop-opacity="0.1"/>
    </linearGradient>
    <linearGradient id="Gradient_5" gradientUnits="userSpaceOnUse" x1="550.43" y1="574.27" x2="550.43" y2="565.401">
      <stop offset="0" stop-color="#808080" stop-opacity="0.25"/>
      <stop offset="0.54" stop-color="#808080" stop-opacity="0.12"/>
      <stop offset="1" stop-color="#808080" stop-opacity="0.1"/>
    </linearGradient>
    <linearGradient id="Gradient_6" gradientUnits="userSpaceOnUse" x1="699.024" y1="597.124" x2="699.024" y2="432.786" gradientTransform="matrix(1, 0, 0, 1, -148, -72.62)">
      <stop offset="0" stop-color="#808080" stop-opacity="0.25"/>
      <stop offset="0.54" stop-color="#808080" stop-opacity="0.12"/>
      <stop offset="1" stop-color="#808080" stop-opacity="0.1"/>
    </linearGradient>
  </defs>
  <g id="Layer_1">
    <path d="M190,180.5 L414.141,180.5 L414.141,419.818 L190,419.818 z" fill="url(#Gradient_1)"/>
    <path d="M193.703,340.284 L410.432,340.284 L410.432,414.606 L193.703,414.606 z" fill="#FFFFFF"/>
    <path d="M211.492,357.912 L219.891,357.912 L219.891,395.997 L211.492,395.997 z" fill="#64FFDA"/>
    <g opacity="0.7">
      <path d="M228.071,357.912 L236.47,357.912 L236.47,395.997 L228.071,395.997 z" fill="#64FFDA"/>
    </g>
    <g opacity="0.6">
      <path d="M244.655,357.912 L253.054,357.912 L253.054,395.997 L244.655,395.997 z" fill="#64FFDA"/>
    </g>
    <g opacity="0.5">
      <path d="M261.234,357.912 L269.633,357.912 L269.633,395.997 L261.234,395.997 z" fill="#64FFDA"/>
    </g>
    <g opacity="0.5">
      <path d="M277.813,357.912 L286.211,357.912 L286.211,395.997 L277.813,395.997 z" fill="#64FFDA"/>
    </g>
    <g opacity="0.4">
      <path d="M294.392,357.912 L302.79,357.912 L302.79,395.997 L294.392,395.997 z" fill="#64FFDA"/>
    </g>
    <g opacity="0.3">
      <path d="M310.976,357.912 L319.374,357.912 L319.374,395.997 L310.976,395.997 z" fill="#64FFDA"/>
    </g>
    <path d="M400.016,376.709 C400.016,387.416 390.943,396.096 379.75,396.096 C368.558,396.096 359.485,387.416 359.485,376.709 C359.485,366.002 368.558,357.323 379.75,357.323 C390.943,357.323 400.016,366.002 400.016,376.709 z" fill="#D71920"/>
    <path d="M193.703,263.066 L410.432,263.066 L410.432,337.388 L193.703,337.388 z" fill="#FFFFFF"/>
    <path d="M211.492,280.694 L219.891,280.694 L219.891,318.779 L211.492,318.779 z" fill="#64FFDA"/>
    <g opacity="0.7">
      <path d="M228.071,280.694 L236.47,280.694 L236.47,318.779 L228.071,318.779 z" fill="#64FFDA"/>
    </g>
    <g opacity="0.6">
      <path d="M244.655,280.694 L253.054,280.694 L253.054,318.779 L244.655,318.779 z" fill="#64FFDA"/>
    </g>
    <g opacity="0.5">
      <path d="M261.234,280.694 L269.633,280.694 L269.633,318.779 L261.234,318.779 z" fill="#64FFDA"/>
    </g>
    <g opacity="0.5">
      <path d="M277.813,280.694 L286.211,280.694 L286.211,318.779 L277.813,318.779 z" fill="#64FFDA"/>
    </g>
    <g opacity="0.4">
      <path d="M294.392,280.694 L302.79,280.694 L302.79,318.779 L294.392,318.779 z" fill="#64FFDA"/>
    </g>
    <g opacity="0.3">
      <path d="M310.976,280.694 L319.374,280.694 L319.374,318.779 L310.976,318.779 z" fill="#64FFDA"/>
    </g>
    <path d="M400.016,299.497 C400.016,310.203 390.943,318.883 379.75,318.883 C368.558,318.883 359.485,310.203 359.485,299.497 C359.485,288.79 368.558,280.11 379.75,280.11 C390.943,280.11 400.016,288.79 400.016,299.497 z" fill="#D71920"/>
    <path d="M193.703,185.848 L410.432,185.848 L410.432,260.17 L193.703,260.17 z" fill="#FFFFFF"/>
    <path d="M211.492,203.481 L219.891,203.481 L219.891,241.566 L211.492,241.566 z" fill="#64FFDA"/>
    <g opacity="0.7">
      <path d="M228.071,203.481 L236.47,203.481 L236.47,241.566 L228.071,241.566 z" fill="#64FFDA"/>
    </g>
    <g opacity="0.6">
      <path d="M244.655,203.481 L253.054,203.481 L253.054,241.566 L244.655,241.566 z" fill="#64FFDA"/>
    </g>
    <g opacity="0.5">
      <path d="M261.234,203.481 L269.633,203.481 L269.633,241.566 L261.234,241.566 z" fill="#64FFDA"/>
    </g>
    <g opacity="0.5">
      <path d="M277.813,203.481 L286.211,203.481 L286.211,241.566 L277.813,241.566 z" fill="#64FFDA"/>
    </g>
    <g opacity="0.4">
      <path d="M294.392,203.481 L302.79,203.481 L302.79,241.566 L294.392,241.566 z" fill="#64FFDA"/>
    </g>
    <g opacity="0.3">
      <path d="M310.976,203.481 L319.374,203.481 L319.374,241.566 L310.976,241.566 z" fill="#64FFDA"/>
    </g>
    <path d="M401.597,222.278 C401.597,233.821 391.816,243.178 379.75,243.178 C367.685,243.178 357.904,233.821 357.904,222.278 C357.904,210.736 367.685,201.379 379.75,201.379 C391.816,201.379 401.597,210.736 401.597,222.278 z" fill="url(#Gradient_2)"/>
    <path d="M401.597,300.013 C401.597,311.556 391.816,320.913 379.75,320.913 C367.685,320.913 357.904,311.556 357.904,300.013 C357.904,288.47 367.685,279.113 379.75,279.113 C391.816,279.113 401.597,288.47 401.597,300.013 z" fill="url(#Gradient_3)"/>
    <path d="M401.597,377.226 C401.597,388.768 391.816,398.126 379.75,398.126 C367.685,398.126 357.904,388.768 357.904,377.226 C357.904,365.683 367.685,356.326 379.75,356.326 C391.816,356.326 401.597,365.683 401.597,377.226 z" fill="url(#Gradient_4)"/>
    <path d="M400.016,222.278 C400.016,232.985 390.943,241.665 379.75,241.665 C368.558,241.665 359.485,232.985 359.485,222.278 C359.485,211.571 368.558,202.892 379.75,202.892 C390.943,202.892 400.016,211.571 400.016,222.278 z" fill="#D71920"/>
    <g opacity="0.7">
      <path d="M425.408,263.066 L428.68,263.066" fill-opacity="0" stroke="#E46066" stroke-width="4" stroke-linecap="round" stroke-linejoin="round"/>
      <path d="M457.884,263.066 L548.92,263.066" fill-opacity="0" stroke="#E46066" stroke-width="4" stroke-dasharray="12.52,33.38" stroke-linecap="round" stroke-linejoin="round"/>
      <path d="M563.022,263.066 L566.294,263.066 L566.294,266.196" fill-opacity="0" stroke="#E46066" stroke-width="4" stroke-linecap="round" stroke-linejoin="round" display="none"/>
      <path d="M566.294,295.791 L566.294,355.939" fill-opacity="0" stroke="#E46066" stroke-width="4" stroke-dasharray="11.93,31.8" stroke-linecap="round" stroke-linejoin="round"/>
      <path d="M566.294,351.234 L566.294,354.365" fill-opacity="0" stroke="#E46066" stroke-width="4" stroke-linecap="round" stroke-linejoin="round" display="none"/>
    </g>
    <path d="M583.315,509.416 C583.315,509.416 589.815,551.404 628.181,565.401 L472.755,565.401 C511.121,551.404 517.621,509.416 517.621,509.416 z" fill="#E0E0E0"/>
    <path d="M471.997,565.401 L628.868,565.401 L628.868,574.27 L471.997,574.27 z" fill="url(#Gradient_5)"/>
    <path d="M472.777,565.401 L628.181,565.401 L628.181,572.246 L472.777,572.246 z" fill="#F5F5F5"/>
    <path d="M677.137,360.166 L424.911,360.166 C421.673,360.166 419.049,362.677 419.049,365.774 L419.049,517.795 C419.049,521.5 422.189,524.504 426.062,524.504 L675.987,524.504 C679.86,524.504 683,521.5 683,517.795 L683,365.774 C683,362.677 680.375,360.166 677.137,360.166 z" fill="url(#Gradient_6)"/>
    <path d="M428.085,362.462 L672.873,362.462 C676.111,362.462 678.735,364.973 678.735,368.07 L678.735,498.221 L422.223,498.221 L422.223,368.075 C422.22,364.976 424.845,362.462 428.085,362.462 z" fill="#FFFFFF"/>
    <path d="M671.722,520.612 L429.236,520.612 C425.363,520.612 422.223,517.608 422.223,513.903 L422.223,498.221 L678.735,498.221 L678.735,513.903 C678.735,517.608 675.595,520.612 671.722,520.612 z" fill="#F5F5F5"/>
    <path d="M434.902,373.459 L667.032,373.459 L667.032,483.049 L434.902,483.049 z" fill="#D71920"/>
    <path d="M444.086,380.732 L667.179,380.732 L667.179,373.423 L435.049,373.423 L435.049,483.013 L444.086,483.013 L444.086,380.732 z" fill="#FFFFFF" opacity="0.2"/>
    <g opacity="0.7">
      <path d="M560.841,191.171 C519.578,191.171 486.127,223.171 486.127,262.645 C486.127,302.119 519.578,334.119 560.841,334.119 C602.104,334.119 635.554,302.119 635.554,262.645 C635.554,223.171 602.104,191.171 560.841,191.171 z M560.841,320.505 C527.437,320.505 500.358,294.6 500.358,262.645 C500.358,230.689 527.437,204.785 560.841,204.785 C594.244,204.785 621.323,230.689 621.323,262.645 C621.361,277.998 615,292.733 603.648,303.586 C592.296,314.439 576.89,320.516 560.841,320.471 z" fill="#D71920"/>
      <path d="M583.753,293.651 L593.145,284.665 C593.934,283.912 594.377,282.89 594.377,281.824 C594.377,280.757 593.934,279.735 593.145,278.982 L576.175,262.747 L593.145,246.512 C593.932,245.764 594.374,244.748 594.374,243.687 C594.374,242.626 593.932,241.61 593.145,240.862 L583.753,231.843 C582.965,231.088 581.897,230.664 580.782,230.664 C579.668,230.664 578.599,231.088 577.811,231.843 L560.841,248.078 L543.87,231.843 C543.089,231.09 542.026,230.667 540.917,230.667 C539.808,230.667 538.746,231.09 537.964,231.843 L528.536,240.862 C527.75,241.61 527.307,242.626 527.307,243.687 C527.307,244.748 527.75,245.764 528.536,246.512 L545.507,262.747 L528.536,278.982 C527.747,279.735 527.304,280.757 527.304,281.824 C527.304,282.89 527.747,283.912 528.536,284.665 L537.964,293.651 C538.736,294.421 539.802,294.856 540.917,294.856 C542.032,294.856 543.098,294.421 543.87,293.651 L560.841,277.416 L577.811,293.651 C578.599,294.405 579.668,294.829 580.782,294.829 C581.897,294.829 582.965,294.405 583.753,293.651 z" fill="#D71920"/>
    </g>
  </g>
</svg>
