<?xml version="1.0" encoding="UTF-8"?>
<!DOCTYPE svg PUBLIC "-//W3C//DTD SVG 1.1//EN" "http://www.w3.org/Graphics/SVG/1.1/DTD/svg11.dtd">
<svg version="1.1" xmlns="http://www.w3.org/2000/svg" xmlns:xlink="http://www.w3.org/1999/xlink" x="0" y="0" width="289" height="158" viewBox="0, 0, 289, 158">
  <defs>
    <linearGradient id="Gradient_1" gradientUnits="userSpaceOnUse" x1="145.61" y1="91.069" x2="145.61" y2="21.928">
      <stop offset="1" stop-color="#FFF5CC"/>
      <stop offset="1" stop-color="#000000"/>
    </linearGradient>
  </defs>
  <g id="Layer_1">
    <path d="M51.726,30.117 C44.894,28.225 37.156,28.225 31.229,32.173 C25.302,36.12 22.421,44.755 26.29,50.677 C30.818,57.503 40.86,57.338 47.94,61.45 C52.302,64 55.513,68.276 60.123,70.496 C67.284,74.033 76.01,71.73 82.925,67.783 C90.416,63.506 102.763,47.88 88.934,43.439 C83.172,41.548 77.409,41.055 71.729,38.587 C64.979,35.709 58.723,32.008 51.726,30.117 z" fill="#FFFFFF" opacity="0.77"/>
    <path d="M21.745,88.589 C35.328,81.105 51.544,80.448 67.02,80.448 C82.496,80.448 98.548,80.612 112.871,74.526 C136.826,64.164 149.832,38.752 167.942,19.919 C175.021,12.599 185.229,0.017 202.351,0.099 C218.156,0.181 222.436,6.02 229.68,15.067 C235.772,22.633 243.921,53.555 250.424,59.723 C260.632,69.427 272.65,77.322 280.882,88.836 C287.056,97.553 290.76,108.82 287.467,119.018 C284.422,128.476 275.861,135.384 266.559,138.92 C249.19,145.5 229.763,142.045 211.9,136.864 C194.037,131.765 176.256,124.939 157.734,125.022 C138.801,125.104 120.856,132.423 103.24,139.414 C85.624,146.404 67.432,153.312 48.499,152.654 C30.965,152.079 8.657,150.269 1.577,128.558 C-3.773,111.37 8.657,95.909 21.745,88.589 z" fill="#FFFFFF" opacity="0.77"/>
    <path d="M252.5,136.7 C252.5,139.578 251.429,142.374 249.372,144.348 C247.396,146.404 244.597,147.555 241.716,147.638 L49.257,147.638 C43.33,147.638 38.555,142.703 38.555,138.098 L38.555,29.376 C38.555,21.975 44.729,17.616 50.656,17.616 L241.798,17.698 C247.725,17.698 252.5,23.373 252.5,29.459 L252.5,136.7 z" fill="#332F4B"/>
    <path d="M52.385,143.032 C50.08,143.032 47.857,142.045 46.211,140.401 C44.565,138.756 43.659,136.535 43.659,134.233 L43.659,30.692 C43.659,28.389 44.565,26.169 46.211,24.524 C47.857,22.879 50.08,21.975 52.385,21.892 L238.67,21.892 C240.975,21.892 243.198,22.879 244.844,24.524 C246.49,26.169 247.396,28.389 247.396,30.692 L247.396,134.233 C247.396,136.535 246.49,138.756 244.844,140.401 C243.198,142.045 240.975,142.95 238.67,143.032 L52.385,143.032 z" fill="#FFCF01"/>
    <path d="M172.157,142.95 L118.074,21.481 L59.711,142.95 L172.157,142.95 z" fill="#F9A20F" opacity="0.3"/>
    <path d="M228.628,144.595 L174.462,21.564 L116.017,144.595 L228.628,144.595 z" fill="#F9A20F" opacity="0.3"/>
    <path d="M239.246,142.786 C243.774,142.786 247.478,139.085 247.478,134.562 L247.478,55.529 L233.155,22.304 L229.862,22.304 L173.474,142.786 L239.246,142.786 z" fill="#F9A20F" opacity="0.3"/>
    <path d="M114.452,142.95 L60.287,21.564 L43.412,59.805 L43.412,133.081 C43.412,138.509 47.857,142.95 53.29,142.95 L114.452,142.95 z" fill="#F9A20F" opacity="0.3"/>
    <path d="M237.271,11.119 C240.317,11.119 242.786,8.652 242.786,5.609 C242.786,2.566 240.317,0.099 237.271,0.099 C234.225,0.099 231.755,2.566 231.755,5.609 C231.755,8.652 234.225,11.119 237.271,11.119 z" fill="#FFFFFF"/>
    <path d="M267.234,59.559 C268.14,57.585 267.234,55.282 265.259,54.46 C263.283,53.555 260.978,54.46 260.155,56.433 C259.25,58.407 260.155,60.71 262.131,61.532 C264.106,62.355 266.411,61.45 267.234,59.559 z" fill="#F0F0FA" opacity="0.77"/>
    <path d="M30.571,74.691 C32.135,71.319 30.571,67.371 27.195,65.809 C23.82,64.246 19.869,65.809 18.305,69.181 C16.741,72.553 18.305,76.5 21.68,78.063 C25.055,79.543 29.089,78.063 30.571,74.691 z" fill="#FFFFFF" opacity="0.77"/>
    <path d="M30.571,74.691 C32.135,71.319 30.571,67.371 27.195,65.809 C23.82,64.246 19.869,65.809 18.305,69.181 C16.741,72.553 18.305,76.5 21.68,78.063 C25.055,79.543 29.089,78.063 30.571,74.691 z" fill="#FFFFFF" opacity="0.77"/>
    <path d="M273.874,47.49 C275.438,44.118 273.874,40.171 270.499,38.608 C267.124,37.046 263.173,38.608 261.609,41.98 C260.045,45.352 261.609,49.3 264.984,50.862 C268.359,52.343 272.393,50.862 273.874,47.49 z" fill="#FFFFFF" opacity="0.77"/>
    <path d="M53.208,21.893 L238.012,21.893 C240.563,21.893 242.951,22.879 244.762,24.689 C246.573,26.498 247.56,28.883 247.56,31.432 L247.56,91.057 L43.659,91.057 L43.659,31.432 C43.659,28.883 44.647,26.498 46.458,24.689 C48.269,22.879 50.656,21.893 53.208,21.893 z" fill="url(#Gradient_1)" opacity="0.39"/>
    <path d="M63.086,142.292 L63.086,153.806 L64.732,153.806 L64.732,153.066 L227.228,153.066 L227.228,153.806 L228.874,153.806 L228.874,142.292 L63.086,142.292 z" fill="#332F4B"/>
    <path d="M228.792,142.374 L63.086,142.374 L63.086,146.486 L228.874,146.486 L228.874,142.374 L228.792,142.374 z" fill="#305A8A"/>
    <path d="M258.344,150.598 L32.711,150.598 C31.888,150.598 31.229,151.256 31.229,152.079 L31.229,156.191 C31.229,157.013 31.888,157.671 32.711,157.671 L258.344,157.671 C259.167,157.671 259.826,157.013 259.826,156.191 L259.826,152.079 C259.826,151.256 259.167,150.598 258.344,150.598 z" fill="#C0D5ED"/>
    <g display="none">
      <path d="M152.274,92.996 C151.449,94.064 150.46,94.884 149.307,95.458 C148.152,96.031 146.835,96.358 145.518,96.355 C144.201,96.353 142.884,96.021 141.733,95.443 C140.582,94.866 139.513,94.041 138.774,92.971" fill="#000000" display="none"/>
      <path d="M152.274,92.996 C151.449,94.064 150.46,94.884 149.307,95.458 C148.152,96.031 146.835,96.358 145.518,96.355 C144.201,96.353 142.884,96.021 141.733,95.443 C140.582,94.866 139.513,94.041 138.774,92.971" fill-opacity="0" stroke="#2D2D2D" stroke-width="4.5" stroke-linecap="round" stroke-miterlimit="10"/>
    </g>
    <path d="M132.576,81.982 C132.576,84.908 130.201,87.28 127.273,87.28 C124.344,87.28 121.97,84.908 121.97,81.982 C121.97,79.057 124.344,76.685 127.273,76.685 C130.201,76.685 132.576,79.057 132.576,81.982 z" fill="#2D2D2D" display="none"/>
    <path d="M169.286,81.982 C169.286,84.908 166.911,87.28 163.983,87.28 C161.055,87.28 158.68,84.908 158.68,81.982 C158.68,79.057 161.055,76.685 163.983,76.685 C166.911,76.685 169.286,79.057 169.286,81.982 z" fill="#2D2D2D" display="none"/>
    <path d="M270,105 C270,116.046 261.046,125 250,125 C238.954,125 230,116.046 230,105 C230,93.954 238.954,85 250,85 C261.046,85 270,93.954 270,105 z" fill="#332F4B" display="none"/>
    <g>
      <path d="M250.183,97 L250.183,113" fill="#000000"/>
      <path d="M250.183,97 L250.183,113" fill-opacity="0" stroke="#FFFFFF" stroke-width="2.5" display="none"/>
    </g>
    <g>
      <path d="M258,105.183 L242,105.183" fill="#000000"/>
      <path d="M258,105.183 L242,105.183" fill-opacity="0" stroke="#FFFFFF" stroke-width="2.5" display="none"/>
    </g>
    <g id="XMLID_1435_">
      <path d="M219.601,58.057 L167.539,58.057 L167.539,38.026 C167.539,35.853 165.108,34.08 162.126,34.08 L129.879,34.08 C126.898,34.08 124.467,35.853 124.467,38.026 L124.467,58.057 L72.358,58.057 C69.377,58.057 66.991,59.829 66.991,61.969 L66.991,125.972 C66.991,128.146 69.422,129.885 72.358,129.885 L219.601,129.885 C222.583,129.885 224.968,128.112 224.968,125.972 L224.968,61.969 C225.014,59.829 222.583,58.057 219.601,58.057 z" fill="#E3E3E3" id="XMLID_1434_"/>
      <path d="M169.603,122.227 L122.402,122.227 C121.164,122.227 120.109,121.491 120.109,120.555 L120.109,112.529 C120.109,111.627 121.118,110.857 122.402,110.857 L169.603,110.857 C170.841,110.857 171.896,111.593 171.896,112.529 L171.896,120.555 C171.85,121.491 170.841,122.227 169.603,122.227 z" fill="#89C462" id="XMLID_1433_"/>
      <path d="M169.603,113.232 L122.402,113.232 C121.164,113.232 120.109,113.967 120.109,114.904 L120.109,120.588 C120.109,121.491 121.118,122.26 122.402,122.26 L169.603,122.26 C170.841,122.26 171.896,121.525 171.896,120.588 L171.896,114.904 C171.85,113.967 170.841,113.232 169.603,113.232 z" fill="#73AF50" id="XMLID_1439_"/>
      <path d="M80.11,84.607 L211.849,84.607 L211.849,88.52 L80.11,88.52 z" fill="#D1D3D4" id="XMLID_1432_"/>
      <path d="M80.11,93.168 L211.849,93.168 L211.849,97.08 L80.11,97.08 z" fill="#D1D3D4" id="XMLID_1429_"/>
      <path d="M103.871,76.08 L188.088,76.08 L188.088,79.993 L103.871,79.993 z" fill="#D1D3D4" id="XMLID_1428_"/>
      <path d="M103.871,67.553 L188.088,67.553 L188.088,71.466 L103.871,71.466 z" fill="#D1D3D4" id="XMLID_1427_"/>
      <path d="M80.11,101.695 L211.849,101.695 L211.849,105.607 L80.11,105.607 z" fill="#D1D3D4" id="XMLID_1415_"/>
      <path d="M161.438,37.792 L130.521,37.792 C129.971,37.792 129.512,38.127 129.512,38.528 L129.512,61.066 C129.512,61.467 129.971,61.802 130.521,61.802 L161.438,61.802 C161.988,61.802 162.447,61.467 162.447,61.066 L162.447,38.528 C162.447,38.127 161.988,37.792 161.438,37.792 z M145.2,42.44 C149.145,42.072 152.493,44.514 151.989,47.389 C151.668,49.362 149.466,50.934 146.759,51.201 C142.815,51.569 139.466,49.128 139.971,46.252 C140.338,44.279 142.494,42.674 145.2,42.44 z M154.42,57.722 L137.585,57.722 L137.585,55.08 C137.585,53.576 139.283,52.338 141.347,52.338 L150.658,52.338 C152.723,52.338 154.42,53.576 154.42,55.08 L154.42,57.722 z" fill="#F2C333" id="XMLID_1411_" display="none"/>
    </g>
    <path d="M266.755,82.7 C266.755,92.365 258.92,100.2 249.255,100.2 C239.59,100.2 231.755,92.365 231.755,82.7 C231.755,73.035 239.59,65.2 249.255,65.2 C258.92,65.2 266.755,73.035 266.755,82.7 z" fill="#1C1C1C" id="XMLID_1387_"/>
    <g>
      <path d="M163.638,61.237 L128.322,61.237 C127.712,61.237 127.22,60.725 127.22,60.092 L127.22,37.609 C127.22,36.976 127.712,36.464 128.322,36.464 L163.638,36.464 C164.248,36.464 164.74,36.976 164.74,37.609 L164.74,60.098 C164.74,60.725 164.248,61.237 163.638,61.237 z" fill="#F1F2F2" id="XMLID_2059_"/>
      <path d="M128.967,37.969 C128.802,37.969 128.668,38.109 128.668,38.279 L128.668,59.428 C128.668,59.599 128.802,59.739 128.967,59.739 L162.993,59.739 C163.158,59.739 163.292,59.599 163.292,59.428 L163.292,38.279 C163.292,38.109 163.158,37.969 162.993,37.969 L128.967,37.969 z" fill="#333333" id="XMLID_2058_"/>
      <path d="M161.898,64.665 L130.063,64.665 C129.664,64.665 129.342,64.33 129.342,63.916 L129.342,63.916 C129.342,63.502 129.664,63.167 130.063,63.167 L161.898,63.167 C162.296,63.167 162.618,63.502 162.618,63.916 L162.618,63.916 C162.624,64.33 162.296,64.665 161.898,64.665 z" fill="#F1F2F2" id="XMLID_2056_"/>
      <path d="M139.656,61.237 L152.304,61.237 L152.304,63.167 L139.656,63.167 z" fill="#D1D3D4" id="XMLID_2055_"/>
      <path d="M139.656,61.237 C139.656,62.521 152.304,62.521 152.304,61.237 L139.656,61.237 z" fill="#BCBEC0" id="XMLID_2054_"/>
    </g>
    <g>
      <path d="M239.758,77.397 C241.478,73.921 245.089,71.522 249.255,71.522 C254.088,71.522 258.172,74.75 259.426,79.142 L256.931,79.142 L260.68,85.57 L264.43,79.142 L262.22,79.142 C260.905,73.256 255.592,68.839 249.255,68.839 C244.013,68.839 239.472,71.862 237.314,76.238 C237.308,76.252 237.301,76.265 237.294,76.279 L239.737,77.439 C239.744,77.425 239.751,77.411 239.758,77.397" fill="#FFFFFF"/>
      <path d="M258.791,86.488 C257.088,90.007 253.453,92.443 249.255,92.443 C244.462,92.443 240.404,89.267 239.115,84.93 L241.579,84.93 L237.83,78.502 L234.081,84.93 L236.316,84.93 C237.671,90.762 242.957,95.126 249.255,95.126 C254.528,95.126 259.093,92.067 261.234,87.648 L261.241,87.635 C260.48,87.271 259.662,86.881 258.8,86.469 L258.791,86.488" fill="#FFFFFF"/>
    </g>
  </g>
</svg>
